<?xml version="1.0" encoding="UTF-8" standalone="no"?><!DOCTYPE svg PUBLIC "-//W3C//DTD SVG 1.1//EN" "http://www.w3.org/Graphics/SVG/1.1/DTD/svg11.dtd"><svg width="100%" height="100%" viewBox="0 0 2250 2813" version="1.1" xmlns="http://www.w3.org/2000/svg" xmlns:xlink="http://www.w3.org/1999/xlink" xml:space="preserve" xmlns:serif="http://www.serif.com/" style="fill-rule:evenodd;clip-rule:evenodd;stroke-linejoin:round;stroke-miterlimit:2;"><g id="Layer3"><path d="M1043.8,1693.89c18.554,10.963 31.184,19.078 62.422,20.891c46.454,2.696 88.838,-2.272 133.383,-14.263c19.888,-5.353 53.677,-23.416 70.535,-36.594c28.751,-22.474 49.735,-63.106 69.053,-93.232c26.975,-42.068 60.959,-81.511 82.794,-126.751c1.981,-4.104 0.257,-9.044 -3.847,-11.025c-4.104,-1.981 -9.045,-0.257 -11.025,3.847c-21.549,44.647 -55.203,83.498 -81.824,125.015c-18.4,28.695 -37.937,67.729 -65.321,89.135c-15.465,12.089 -46.414,28.748 -64.658,33.659c-42.792,11.518 -83.506,16.312 -128.133,13.723c-27.547,-1.599 -38.617,-8.955 -54.978,-18.623c-3.924,-2.318 -8.991,-1.015 -11.31,2.909c-2.318,3.923 -1.015,8.991 2.909,11.309Z" style="fill:#5c5347;"/><path d="M833.866,1459.05c26.985,33.328 45.533,74.808 69.913,110.186c44.793,64.999 105.383,118.217 179.929,145.456c4.939,1.805 10.414,-0.739 12.219,-5.678c1.805,-4.939 -0.74,-10.414 -5.679,-12.219c-70.818,-25.878 -128.226,-76.623 -170.779,-138.371c-24.654,-35.776 -43.506,-77.662 -70.793,-111.364c-3.309,-4.087 -9.314,-4.718 -13.4,-1.41c-4.087,3.309 -4.719,9.314 -1.41,13.4Z" style="fill:#5c5347;"/><path d="M1397.51,1527.75c-2.43,101.141 25.242,159.141 89.169,283.821c1.919,3.743 6.516,5.224 10.26,3.304c3.743,-1.919 5.224,-6.516 3.305,-10.26c-62.319,-121.542 -89.864,-177.903 -87.494,-276.499c0.101,-4.205 -3.231,-7.702 -7.437,-7.803c-4.205,-0.101 -7.702,3.231 -7.803,7.437Z" style="fill:#5c5347;"/><path d="M987.627,1661.69c20.601,30.696 24.593,67.103 22.769,104.013c-1.903,38.53 -10.18,77.644 -14.074,112.031c-0.513,4.528 2.747,8.621 7.275,9.134c4.528,0.513 8.621,-2.747 9.134,-7.275c3.931,-34.706 12.238,-74.188 14.159,-113.075c2.002,-40.509 -2.941,-80.342 -25.551,-114.031c-2.539,-3.784 -7.673,-4.795 -11.457,-2.255c-3.784,2.54 -4.795,7.674 -2.255,11.458Z" style="fill:#5c5347;"/></g><g id="Layer6"><path d="M902.158,540.106c-5.789,2.945 -11.541,6.145 -17.228,9.554c-14.433,5.297 -28.631,13.576 -34.188,16.906c-36.767,22.036 -70.94,53.577 -84.135,95.102c-1.853,3.687 -2.641,7.044 -2.732,10.045c-0.754,3.309 -1.373,6.682 -1.85,10.115c-1.273,9.145 -2.448,21.192 -0.579,31.859c0.446,2.546 1.05,5.023 1.824,7.412l-0.869,1.438c-3.38,5.815 -5.158,11.095 -5.935,15.03l-6.267,4.427c-12.214,8.682 -24.388,17.448 -36.064,26.84c-5.102,4.104 -8.906,7.371 -11.654,9.89c-7.415,3.803 -14.791,9.237 -20.082,13.281c-5.192,-1.638 -10.713,-2.406 -16.402,-2.399c-13.234,0.018 -27.482,4.572 -37.903,9.567c-40.32,19.326 -76.562,55.098 -96.621,94.991c-3.46,6.88 -8.156,18.551 -10.452,30.411c-3.124,7.018 -5.55,13.591 -7.141,19.462c-4.386,16.189 -4.014,46.558 5.827,67.659c0.46,0.984 0.936,1.951 1.435,2.898c0.252,4.831 0.729,9.725 1.435,14.686c1.483,10.432 3.079,28.949 8.274,44.258c2.56,7.544 6.034,14.341 10.342,20.017c0.49,3.775 1.283,7.236 2.304,10.319c-2.976,5.362 -5.943,10.726 -8.889,16.111c-3.408,3.116 -5.964,5.5 -7.185,6.666c-8.79,8.393 -19.616,20.984 -25.603,30.353c-4.765,7.457 -6.906,14.24 -7.306,18.463l-0.029,0.418c-3.537,3.311 -8.557,9.081 -11.38,12.86c-26.291,35.194 -27.183,84.655 -24.053,126.124c1.089,14.417 1.791,28.836 5.001,42.979c0.16,0.707 9.124,20.301 11.118,23.89c5.232,9.421 12.805,10.912 13.654,11.164c1.806,0.535 3.531,0.838 5.179,0.944c2.446,7.546 2.784,9.353 7.607,20.288c1.516,3.438 5.032,11.42 6.846,13.823c2.134,2.826 4.384,4.614 6.166,5.765c4.014,2.591 7.868,3.793 11.515,3.965c4.313,2.844 9.012,4.606 13.91,5.251c6.88,0.907 14.131,-0.278 21.354,-2.815c3.828,-1.345 7.531,-3.795 11.164,-4.163c39.397,-3.993 59.108,-2.252 96.562,-21.981c5.138,-2.707 17.511,-8.557 26.593,-15.649c0.572,0.574 1.145,1.089 1.71,1.547c6.266,5.08 11.918,5.664 16.011,5.279l0.03,0.037c2.793,5.513 5.295,10.035 6.409,12.048c2.517,4.549 10.009,15.689 11.475,17.024c10.661,9.712 20.943,5.87 25.432,3.662l0.071,-0.036l0.516,0.099c0.434,0.052 0.867,0.105 1.301,0.157l1.157,0.062l0.146,0.495c1.593,5.046 4.159,10.693 6.856,15.784c1.004,2.709 2.309,4.901 3.783,6.672c2.271,3.733 4.346,6.648 5.68,8.004c4.629,4.706 8.98,5.822 11.518,6.373c6.881,1.491 12.472,-0.112 17.11,-3.094c3.613,-2.322 7.05,-5.816 9.065,-11.336c0.384,-1.051 0.371,-7.25 0.308,-11.454c3.872,-3.923 7.253,-10.239 5.355,-19.881c-0.109,-0.552 -1.338,-4.346 -1.749,-5.829c-0.958,-3.465 -2.511,-9.204 -3.386,-12.692c-0.652,-2.602 -1.421,-5.311 -2.072,-8.06c0.036,-5.303 -0.118,-10.501 -0.933,-15.793c-0.497,-3.223 -3.601,-10.988 -4.354,-12.072c-3.868,-5.565 -8.422,-8.1 -12.647,-9.132c-3.575,-7.71 -7.757,-15.323 -13.082,-22.835c-3.846,-5.426 -7.623,-10.905 -11.287,-16.455c13.552,-45.697 22.588,-103.1 14.332,-149.672c-3.491,-19.696 -11.98,-39.691 -22.155,-56.785c-1.997,-3.355 -3.699,-6.792 -5.193,-10.399c-0.926,-2.569 -4.549,-12.534 -5.363,-13.634c-6.622,-8.936 -14.88,-9.682 -20.455,-9.159c-4.012,0.377 -8.104,1.681 -11.893,4.707c1.447,-19.281 -1.112,-35.684 -7.128,-45.933c-0.554,-0.944 -1.131,-1.806 -1.724,-2.594c0.773,-10.004 2.083,-23.525 1.018,-35.87c-0.467,-5.414 -1.404,-10.628 -2.829,-15.479c3.18,-27.35 9.666,-54.643 18.63,-77.405c1.227,-3.117 2.504,-6.223 3.838,-9.316l0.252,-0.311c5.021,-6.188 10.02,-12.441 15.037,-18.709c-8.789,22.685 0.408,53.456 36.368,22.639c0.45,0.102 0.896,0.219 1.337,0.352c20.89,6.288 37.527,11.5 56.424,0.982c9.326,-0.752 19.507,-4.534 29.028,-11.554c4.07,-3 8.009,-6.501 11.637,-10.265c10.34,4.056 22.17,3.232 34.083,-2.479l0.257,0.195c1.388,0.999 14.433,9.643 28.438,-1.337c1.576,-1.236 4.266,-3.6 7.483,-6.7l1.873,-0.918c2.377,0.445 5.032,0.617 8.005,0.431c5.854,-0.365 12.34,-2.498 18.765,-6.371c3.227,1.239 6.943,1.953 11.242,1.927c2.188,-0.013 4.396,-0.242 6.602,-0.687c2.13,0.62 4.781,0.994 7.962,0.632c5.963,1.916 12.253,1.46 18.702,-2.663c2.236,-1.43 5.968,-4.162 8.546,-9.946c0.521,-1.17 2.076,-5.968 2.39,-11.072c0.025,-0.41 0.041,-0.821 0.047,-1.231l0.146,-0.127c5.243,-0.929 14.803,-2.964 18.436,-5.866c3.414,-2.727 7.249,-7.514 9.514,-14.651c1.631,-1.595 3.074,-3.52 4.291,-5.814c1.005,-1.896 1.922,-4.245 2.402,-7.102c0.27,-1.611 -0.142,-7.071 -0.379,-9.835c-0.016,-5.81 -0.027,-11.621 -0.081,-17.431c-0.095,-10.27 -0.533,-20.487 -1.08,-30.705c1.746,-42.882 0.09,-86.238 1.627,-128.998c0.884,-24.595 3.832,-55.829 -10.026,-78.021c-5.828,-9.334 -13.115,-11.074 -17.568,-11.621c-0.711,-0.576 -1.462,-1.137 -2.252,-1.69c-0.655,-0.459 -1.314,-0.908 -1.982,-1.349c-4.126,-7.52 -9.658,-13.517 -15.976,-18.23c-20.096,-14.996 -51.768,-16.341 -79.158,-6.314c-17.224,6.306 -31.867,16.886 -41.456,29.58Zm-115.587,365.591l-0.083,0.079l0.124,-0.031l-0.041,-0.048Zm106.316,-231.789l-1.664,2.038l1.418,0.097l0.237,0.022l0.006,-2.056l0.003,-0.101Z" style="fill:#5c5347;"/><path d="M1131.01,510.255c-4.46,-3.613 -8.811,-4.199 -11.125,-4.505c-5.593,-0.741 -10.612,0.458 -15.13,3.294c-1.846,1.159 -3.789,2.7 -5.532,4.826c-2.425,1.201 -4.971,3.007 -7.09,5.724c-5.67,-7.009 -15.248,-10.233 -24.373,-7.39c-11.95,3.722 -18.629,16.446 -14.906,28.396c3.611,11.594 6.944,23.231 9.934,34.911c-4.094,1.52 -9.025,4.63 -12.606,11.979c-1.506,3.093 -3.201,9.329 -2.951,17.61c0.416,13.795 5.358,40.14 5.467,40.964c1.909,14.487 2.397,37.414 5.982,57.82c1.082,6.155 2.476,12.097 4.204,17.67c0.358,7.277 0.679,14.569 0.978,21.879c0.613,14.998 0.781,14.443 0.986,29.041l0.042,2.377c-6.938,3.396 -14.39,7.701 -19.735,12.565c-8.466,7.705 -12.873,16.988 -13.143,26.258c-0.324,11.116 4.926,17.588 12.401,21.636c2.521,1.366 5.6,2.45 9.226,2.808c-1.183,2.555 -2.323,5.171 -2.617,6.333c-0.886,3.5 -0.878,6.475 -0.621,8.743c1.043,9.218 6.032,14.799 12.612,18.08c3.845,1.918 10.576,4.582 20.252,0.276c8.663,-3.854 16.518,-11.397 22.656,-21.65c1.27,-2.12 2.469,-4.385 3.595,-6.746c1.16,1.317 2.442,2.557 3.844,3.717c3.709,3.07 14.396,7.776 29.623,3.748c12.633,-3.342 41.796,-14.447 56.317,-20.081c0.796,1.163 1.46,1.94 1.724,2.245c2.76,3.18 11.623,12.272 26.248,5.921c0.72,-0.313 6.551,-3.977 7.856,-4.8c2.217,-1.118 4.525,-2.06 6.853,-2.92c9.655,-3.565 19.073,-9.137 29.649,-8.301c13.478,1.067 26.58,6.846 40.875,6.84c10.687,-0.004 18.345,-4.024 29.764,-3.24c2.814,0.194 5.7,0.531 8.629,0.924c3.596,3.645 9.179,6.659 17.7,5.972c0.986,-0.08 7.913,-1.419 10.532,-2.132c3.231,-0.881 6.311,-2.026 9.483,-2.987c2.608,-0.536 5.182,-1.247 7.715,-2.149c3.053,-0.964 6.087,-2.127 8.535,-3.131c8.143,8.467 16.4,8.458 22.329,6.613c5.397,7.048 10.865,13.687 15.079,17.683c12.297,11.659 25.208,10.14 30.673,7.775c0.866,-0.375 1.673,-0.889 2.416,-1.528l1.991,3.884l1.824,3.45l1.089,3.2c6.423,18.533 13.559,36.577 24.779,50.678l1.901,3.525c5.465,10 12.993,12.579 19.22,12.616l0.654,0.123l0.266,0.033c0.367,3.341 0.763,6.68 1.185,10.017c-1.848,3.128 -3.28,6.991 -3.903,11.677c-1.417,10.654 2.363,33.389 2.549,34.581c3.479,22.231 10.184,44.753 17.651,66.533c0.273,6.374 0.484,12.749 0.677,19.125c0.124,4.085 0.767,18.337 1.373,23.842c0.344,3.131 0.508,9.805 1.07,13.336c-14.577,13.467 -29.134,27.137 -42.934,41.354c-19.704,20.299 -23.923,44.627 -20.234,69.975l-0.319,1.561c-0.461,2.695 -0.63,6.962 0.429,12.347c1.681,8.553 7.516,24.486 14.118,37.719c0.918,1.84 1.855,3.628 2.807,5.344c0.985,2.727 1.937,5.411 2.833,8.043c5.248,15.408 11.633,35.01 21.171,49.841c-1.403,12.403 -0.719,24.399 2.062,33.197c0.287,0.908 0.595,1.791 0.928,2.649c-11.582,7.483 -23.118,10.188 -36.979,7.86c-3.789,-0.637 -8.268,-3.067 -11.985,-5.129c-2.992,-2.747 -7.967,-7.131 -10.078,-7.976c-6.907,-2.763 -13.352,-2.189 -19.265,0.765c-3.419,1.708 -7.06,4.425 -9.943,9.378c-3.244,5.575 -5.08,13.674 -1.154,22.656c0.217,0.876 0.49,1.77 0.815,2.686c0.791,2.226 2.609,6.086 6.589,9.92c2.562,2.468 8.328,6.646 10.931,8.585c7.52,5.602 14.909,11.035 23.701,14.559c10.874,4.359 18.372,1.28 23.093,-2.744c53.602,-5.147 102.66,-49.992 133.209,-91.729c-0.476,5.45 -0.88,11.282 -0.491,16.515c0.58,7.791 2.638,14.739 5.945,20.192l0.722,1.118c-0.716,0.843 -1.263,1.575 -1.635,2.15c-4.557,7.043 -4.229,13.369 -3.356,17.544c1.077,5.155 3.639,9.542 7.904,13.044c1.999,1.64 10.392,8.523 27.028,2.835c5.502,-1.881 10.423,-4.249 14.908,-8.076c16.692,-14.247 22.533,-29.231 25.48,-45.22c1.872,-10.154 1.848,-20.905 5.437,-32.21c0.66,-1.013 4.314,-6.581 7.298,-10.433l1.174,-1.493c3.959,2.594 8.233,3.687 12.696,3.641c3.185,-0.032 7.436,-0.613 11.745,-3.253c1.007,-0.112 2.017,-0.279 3.027,-0.501c6.267,2.193 11.741,2.189 16.435,1.101c5.805,-0.04 11.564,-1.757 17.079,-5.079c7.675,-4.624 15.033,-13.818 19.897,-23.811c1.84,-0.722 3.556,-1.628 5.132,-2.684c4.742,-3.177 9.587,-8.514 13.578,-15.471c5.102,-8.894 9.231,-21.345 12.064,-28.063c4.111,-9.748 1.327,-16.44 -0.766,-20.364c-2.689,-5.042 -6.794,-9.115 -12.984,-11.049c1.563,-35.125 0.213,-70.211 -11.602,-103.792c-0.639,-1.815 -1.368,-3.717 -2.19,-5.661c-1.932,-18.923 -6.585,-37.569 -11.469,-56.445c3.552,-3.971 6.312,-9.663 5.392,-17.661c-0.232,-2.018 -0.902,-5.143 -2.65,-8.575c-1.45,-2.848 -4.731,-7.329 -4.81,-7.43c-9.433,-12.009 -22.803,-20.308 -35.215,-28.738c-7.825,-5.314 -15.273,-10.662 -22.235,-16.463c-0.915,-6.475 -2.262,-13.343 -4.215,-17.885c-3.617,-8.414 -9.4,-13.284 -14.667,-15.618c-4.531,-2.007 -8.577,-2.485 -12.138,-2.16c-4.126,-7.075 -7.411,-14.601 -9.35,-22.575c1.44,-5.01 2.508,-9.808 3.073,-14.017c1.62,-12.053 -1.121,-21.429 -4.509,-26.521c-4.166,-6.26 -9.062,-8.79 -13.264,-9.892c0.574,-6.389 0.959,-12.782 1.066,-19.182c0.125,-7.552 -0.256,-15.746 -1.805,-23.289l-0.088,-0.437c2.112,-10.273 3.408,-20.456 3.202,-29.424c-0.364,-15.818 -5.185,-28.59 -13.662,-37.167c-4.66,-15.302 -14.399,-26.974 -29.971,-32.352c-6.559,-2.266 -12.686,-3.304 -18.324,-3.353l-1.376,-1.294c-8.292,-7.631 -15.597,-12.068 -18.217,-13.023c-7.277,-2.654 -12.606,-1.551 -16.186,-0.022c-1.997,-2.057 -4.049,-3.963 -6.146,-5.651c-4.137,-3.329 -8.469,-5.966 -12.925,-7.849c-5.751,-12.901 -12.64,-24.381 -19.428,-32.549c-12.085,-14.539 -29.398,-23.162 -43.485,-35.409c-13.744,-11.949 -25.891,-25.432 -42.295,-33.971c-12.477,-6.493 -31.561,-15.298 -49.633,-18.255c-7.678,-1.256 -15.196,-1.465 -22.282,-0.481l-3.936,-2.368c-27.396,-16.057 -51.884,-21.372 -76.655,-24.384c-20.943,-2.547 -42.099,-3.153 -66.032,-9.531l-2.447,-0.678c-0.562,-1.084 -1.101,-1.845 -1.433,-2.345c-4.59,-6.907 -10.567,-9.265 -16.047,-9.963c-3.224,-0.411 -8.127,-0.563 -13.047,1.894c-4.769,-1.701 -9.57,-3.344 -14.401,-4.806c-20.168,-6.102 -40.775,-9.192 -61.681,-4.4c-2.709,0.621 -5.285,1.537 -7.705,2.74Zm110.164,134.049c-0.001,12.352 0.663,24.771 1.68,37.112c0.598,-12.433 0.276,-25.032 -1.68,-37.112Z" style="fill:#5c5347;"/></g><g id="Layer4"><path d="M1073.45,1196.55c-1.237,20.38 1.625,42.471 -3.954,62.493c-3.948,14.168 -14.401,27.123 -22.813,40.653c-9.502,15.283 -16.491,31.223 -12.324,49.495c2.065,9.054 7.431,14.795 12.676,21.986c5.693,7.805 9.865,13.851 18.875,17.801c2.865,1.256 6.212,-0.051 7.468,-2.917c1.256,-2.865 -0.05,-6.212 -2.916,-7.468c-6.965,-3.053 -9.865,-8.064 -14.266,-14.098c-4.306,-5.903 -9.087,-10.393 -10.782,-17.825c-3.465,-15.193 2.997,-28.279 10.898,-40.987c8.99,-14.46 19.888,-28.456 24.107,-43.597c5.79,-20.782 3.065,-43.695 4.349,-64.849c0.19,-3.123 -2.192,-5.812 -5.315,-6.002c-3.123,-0.19 -5.813,2.192 -6.003,5.315Z" style="fill:#5c5347;"/><path d="M1142.95,1184.77c2.638,4.652 3.676,9.869 4.527,15.155c1.001,6.224 1.721,12.553 3.566,18.472c4.484,14.388 13.688,28.954 22.281,41.199c6.572,9.366 14.123,18.438 22.727,26.003c7.312,6.43 16.147,12.388 22.705,19.58c5.569,6.106 9.385,13.18 7.95,22.729c-1.096,7.29 -6.361,11.848 -12.045,16.173c-7.325,5.575 -15.479,10.684 -20.596,17.754c-1.835,2.534 -1.266,6.082 1.268,7.916c2.535,1.835 6.082,1.267 7.917,-1.268c4.495,-6.211 11.843,-10.482 18.278,-15.379c8.078,-6.148 14.833,-13.15 16.39,-23.511c2.016,-13.411 -2.962,-23.478 -10.783,-32.054c-6.831,-7.491 -15.981,-13.758 -23.597,-20.455c-7.934,-6.976 -14.872,-15.364 -20.933,-24.001c-7.951,-11.331 -16.587,-24.745 -20.737,-38.06c-1.686,-5.411 -2.281,-11.209 -3.197,-16.9c-1.067,-6.628 -2.55,-13.114 -5.858,-18.946c-1.543,-2.722 -5.006,-3.678 -7.728,-2.135c-2.722,1.544 -3.678,5.007 -2.135,7.728Z" style="fill:#5c5347;"/><path d="M1170.8,1367.64c1.485,0.076 3.884,-0.249 6.197,-1.614c4.211,-2.484 9.637,-4.86 14.299,-7.887c3.761,-2.442 7.048,-5.305 9.266,-8.739c1.333,-2.063 1,-3.826 0.583,-4.997c-0.501,-1.404 -1.466,-2.69 -3.327,-3.4c-0.433,-0.165 -1.869,-0.748 -4.003,-0.042c-1.542,0.51 -10.416,4.756 -11.656,5.444c-6.157,3.414 -11.945,6.947 -17.117,11.736c-2.295,2.126 -2.433,5.716 -0.307,8.012c1.588,1.714 3.992,2.225 6.065,1.487Z" style="fill:#5c5347;"/><path d="M1059.36,1365.27c-0.65,-0.12 -1.331,-0.238 -2.073,-0.361c-0.664,-0.109 -2.395,-0.366 -2.636,-0.392c-4.676,-0.501 -5.992,3.785 -6.06,4.014c-0.032,0.104 -1.273,6.201 4.596,7.234c4.349,0.765 8.641,1.727 12.912,2.791c7.775,2.237 15.303,5.191 23.086,7.378c1.271,0.357 7.18,0.477 11.082,0.085c2.645,-0.265 4.619,-0.998 5.272,-1.422c2.286,-1.487 2.739,-3.492 2.688,-5.086c-0.041,-1.272 -0.431,-2.728 -1.843,-4.054c-3.033,-2.852 -6.969,-4.943 -11.246,-6.567c-5.335,-2.026 -11.231,-3.309 -15.886,-5.059c-1.995,-0.75 -11.464,-5.127 -13.247,-5.385c-1.944,-0.282 -3.241,0.33 -3.942,0.746c-1.602,0.952 -2.464,2.329 -2.735,4.025c-0.053,0.334 -0.173,1.088 0.032,2.053Z" style="fill:#5c5347;"/><path d="M1148.74,1381.98c-1.705,4.388 -4.666,8.317 -8.366,11.247c-0.428,0.339 -0.88,0.67 -1.353,0.988c-1.017,0.405 -2.124,0.707 -3.328,0.891c-5.365,0.823 -13.536,0.928 -19.967,-1.326c-0.442,-0.155 -0.876,-0.319 -1.299,-0.498c-1.583,-1.953 -3.045,-4.131 -4.623,-5.759c-0.432,-0.445 -0.919,-0.804 -1.441,-1.075c-0.114,-1.05 -0.045,-2.219 0.2,-3.512c0.58,-3.075 -1.446,-6.042 -4.52,-6.622c-3.075,-0.581 -6.042,1.445 -6.622,4.519c-0.988,5.235 -0.282,9.503 1.418,12.981c1.883,3.852 5.08,6.809 9.082,8.912c1.382,1.531 2.833,2.914 4.404,3.888c9.372,5.812 22.849,3.277 31.956,-2.316c7.131,-3.245 11.715,-9.497 14.414,-16.732c0.44,-0.995 0.833,-2.008 1.179,-3.035c0.815,-2.419 1.326,-4.904 1.608,-7.439c0.099,-0.883 0.191,-3.191 0.176,-3.513c-0.211,-4.64 -4.397,-5.318 -4.896,-5.387c-0.224,-0.03 -5.872,-0.502 -6.437,5.226c-0.279,2.833 -0.759,5.781 -1.585,8.562Z" style="fill:#5c5347;"/><path d="M1207.23,1296.25c-0.279,0.08 -2.704,0.779 -3.129,0.932c-2.47,0.885 -3.165,2.648 -3.33,3.007c-1.31,2.841 -0.066,6.212 2.775,7.522c1.452,0.669 3.042,0.672 4.424,0.134c0.497,-0.149 3.53,-1.066 4.009,-1.308c2.791,-1.414 3.91,-4.828 2.496,-7.619c-1.351,-2.668 -4.529,-3.808 -7.245,-2.668Z" style="fill:#5c5347;"/><path d="M1049.47,1318.85c-0.778,2.314 0.011,4.96 2.108,6.438c0.47,0.331 0.974,0.581 1.494,0.752c0.625,0.327 1.28,0.516 1.933,0.591c1.307,0.572 3.012,0.969 4.478,0.841c1.991,-0.174 3.606,-1.088 4.669,-2.348c1.134,-1.343 2.051,-3.283 1.251,-6.179c-1.006,-3.645 -3.477,-5.499 -6.089,-6.126c-2.451,-0.588 -5.339,-0.052 -7.753,2.028c-1.052,0.907 -1.838,2.192 -2.071,3.83l-0.02,0.173Z" style="fill:#5c5347;"/><path d="M991.24,1496.86c-0.814,2.993 0.937,6.094 3.929,6.939c35.002,9.889 69.799,18.166 106.483,18.961c43.808,0.951 91.41,-7.758 132.97,-20.556c22.055,-6.792 43.331,-18.171 60.557,-33.755c2.252,-2.038 8.938,-6.418 12.326,-10.541c2.774,-3.376 3.654,-6.925 2.894,-9.798c-0.254,-0.958 -1.142,-3.567 -4.628,-4.188c-1.029,-0.184 -5.901,-0.035 -6.443,0.025c-5.979,0.653 -11.621,3.171 -17.737,3.942c-15.612,1.967 -31.658,3.145 -47.381,1.912c-8.843,-0.693 -18.041,-3.211 -27.237,-4.844c-10.284,-1.825 -20.558,-2.554 -30.414,0.518c-6.901,2.15 -12.432,6.922 -18.107,11.584c-4.312,3.541 -8.708,7.067 -14.682,7.904c-6.621,0.928 -10.003,-0.898 -13.614,-3.171c-3.381,-2.128 -6.919,-4.528 -12.006,-6.364c-2.245,-0.81 -5.222,-0.917 -8.338,-0.438c-3.329,0.511 -6.875,1.641 -9.167,2.256c-11.104,2.978 -20.714,10.857 -31.427,15.048c-24.638,9.64 -49.828,13.338 -75.94,13.632c-3.129,0.035 -5.64,2.604 -5.605,5.733c0.027,2.363 1.499,4.375 3.567,5.201Zm299.78,-39.501c-2.624,0.729 -5.269,1.434 -8.012,1.78c-16.37,2.062 -33.198,3.259 -49.684,1.966c-9.196,-0.721 -18.771,-3.286 -28.332,-4.984c-8.473,-1.504 -16.94,-2.351 -25.06,0.179c-5.511,1.717 -9.752,5.798 -14.283,9.521c-5.896,4.842 -12.137,9.227 -20.306,10.371c-8.723,1.222 -13.893,-0.579 -18.682,-3.274c-3.63,-2.043 -6.932,-4.866 -12.359,-6.824c-1.066,-0.385 -2.558,0.028 -4.051,0.336c-2.494,0.514 -4.967,1.311 -6.669,1.767c-10.707,2.872 -19.903,10.615 -30.232,14.656c-20.25,7.923 -40.846,12.069 -61.986,13.654c29.681,7.973 59.405,14.242 90.534,14.918c42.63,0.924 88.944,-7.603 129.387,-20.057c20.493,-6.311 40.282,-16.848 56.287,-31.328c0.737,-0.666 1.993,-1.592 3.448,-2.681Z" style="fill:#5c5347;"/><path d="M1207.04,1552.65c-7.989,3.312 -16.27,5.848 -24.618,7.518c-21.006,4.199 -43.944,3.592 -64.63,9.17c-1.682,0.453 -2.983,1.62 -3.664,3.087c-26.279,-2.16 -51.393,-11.935 -72.612,-31.818c-6.311,-5.915 -11.172,-13.214 -16.096,-20.396c-5.433,-7.925 -10.94,-15.717 -18.017,-21.862c-2.362,-2.051 -5.946,-1.799 -7.998,0.564c-2.051,2.362 -1.799,5.946 0.564,7.997c6.358,5.521 11.218,12.593 16.099,19.712c5.389,7.861 10.788,15.786 17.695,22.258c44.034,41.261 103.483,42.952 157.644,22.75c7.063,-2.635 13.842,-5.471 20.272,-8.644c21.538,-8.993 41.119,-23.183 55.084,-40.98c7.649,-9.747 13.646,-20.807 18.948,-31.992c1.045,-2.206 3.194,-6.877 3.721,-10.644c0.399,-2.858 -0.077,-5.386 -1.192,-7.215c-1.159,-1.901 -2.637,-2.596 -3.887,-2.899c-1.283,-0.311 -2.604,-0.228 -3.938,0.374c-0.872,0.394 -1.946,1.15 -2.868,2.455c-0.758,1.075 -1.566,3.351 -2.294,4.342c-1.96,2.667 -4.323,4.877 -6.418,7.432c-7.411,9.039 -12.944,19.097 -18.498,29.295c-10.187,18.708 -25.253,30.555 -43.297,39.496Z" style="fill:#5c5347;"/><path d="M1252.42,1516.11c-3.845,-4.132 -7.678,-8.137 -11.988,-11.844c-1.372,-1.18 -3.24,-2.707 -5.209,-3.572c-2.237,-0.984 -4.605,-1.244 -6.925,-0.533c-2.931,0.899 -4.471,2.953 -4.775,5.909c-0.19,1.841 0.746,4.799 1.328,6.617c1.297,4.047 3.128,7.965 4.623,11.979l-0.511,-0.587c-4.093,-4.562 -8.413,-9.054 -13.129,-12.986c-1.961,-1.635 -4.623,-3.739 -7.422,-4.964c-2.705,-1.184 -5.544,-1.601 -8.266,-0.947c-1.707,0.41 -2.865,1.262 -3.695,2.256c-1.118,1.339 -1.765,3.124 -1.514,5.339c0.094,0.833 0.469,1.881 0.948,2.972c-3.657,-3.383 -7.597,-5.768 -11.236,-6.319c-2.259,-0.343 -3.678,0.471 -4.606,1.221c-1.116,0.9 -1.886,2.119 -2.105,3.746c-0.017,0.13 -0.031,0.269 -0.038,0.419c-1.132,-1.142 -2.402,-2.29 -3.672,-3.116c-2.04,-1.327 -4.173,-1.961 -6.108,-1.89c-2.232,0.082 -3.529,1.063 -4.369,1.994c-0.904,1.002 -1.461,2.236 -1.526,3.744c-0.039,0.903 0.129,2.158 0.866,3.52c0.544,1.005 1.972,2.568 2.543,3.466c1.501,2.359 3.186,4.597 4.74,6.921c1.811,2.706 3.644,5.399 5.357,8.168c1.16,1.876 3.211,4.862 4.873,8.127c-6.654,-7.004 -12.474,-14.835 -18.745,-22.173c-2.789,-3.264 -5.662,-6.59 -9.075,-9.23c-2.716,-2.1 -3.158,-2.451 -5.933,-3.034c-0.811,-0.17 -2.505,-0.419 -3.208,-0.32c-0.807,0.112 -1.475,0.368 -2.017,0.665c-1.197,0.655 -2.005,1.593 -2.506,2.721c-0.483,1.09 -0.83,2.557 -0.1,4.454c0.786,2.044 1.762,4.017 2.859,5.936c-1.012,-1.194 -2.027,-2.383 -3.049,-3.565c-0.96,-1.109 -3.549,-4.632 -5.952,-6.51c-2.424,-1.894 -4.997,-2.473 -7.003,-2.12c-1.962,0.345 -3.059,1.354 -3.771,2.326c-0.706,0.965 -1.113,2.092 -1.125,3.401c-0.007,0.853 0.174,1.984 0.864,3.176c0.279,0.482 1.196,1.59 1.449,1.893l0.982,1.503l0.097,0.148c-1.386,-1.264 -3.443,-3.025 -5.271,-4.041c-2.501,-1.389 -4.949,-1.59 -6.691,-1.092c-1.983,0.566 -3.053,1.695 -3.716,2.793c-0.622,1.031 -0.938,2.196 -0.866,3.504c0.016,0.291 0.055,0.606 0.128,0.938c-0.429,-0.51 -0.862,-1.015 -1.302,-1.515c-1.649,-1.877 -3.356,-3.708 -5.153,-5.444c-0.638,-0.616 -2.276,-1.861 -2.932,-2.153c-0.802,-0.356 -1.511,-0.47 -2.049,-0.502c-2.133,-0.127 -3.621,0.686 -4.652,1.929c-0.335,-0.35 -0.646,-0.65 -0.85,-0.797c-0.711,-0.513 -1.376,-0.77 -1.885,-0.912c-2.577,-0.718 -4.449,0.183 -5.797,1.683c-0.66,0.735 -1.823,2.166 -1.391,4.843c0.149,0.925 0.404,1.808 0.748,2.653c-0.699,-0.555 -1.421,-1.086 -2.169,-1.59c-0.95,-0.638 -2.723,-1.977 -3.858,-2.453c-1.376,-0.577 -2.617,-0.63 -3.538,-0.499c-1.316,0.187 -2.401,0.745 -3.282,1.58c-0.296,0.281 -0.589,0.605 -0.852,0.985c-0.321,-0.554 -0.645,-1.111 -0.976,-1.645c-1.323,-2.131 -2.74,-4.017 -4.139,-5.197c-1.866,-1.574 -3.878,-2.252 -5.868,-2.191c-1.012,0.03 -2.057,0.245 -3.116,0.738c-0.655,-0.691 -1.323,-1.36 -1.505,-1.48c-3.047,-2.027 -5.466,-0.618 -6.47,0.101c-0.543,0.389 -4.143,2.997 -1.578,7.542c0.575,1.019 1.186,2.034 1.83,3.044c-2.46,-2.419 -4.929,-4.829 -7.405,-7.231c-3.782,-3.668 -6.861,-5.991 -11.026,-8.505c-0.821,-0.495 -1.461,-1.023 -2.127,-1.705c-0.249,-0.255 -0.859,-0.953 -0.947,-1.047c-3.081,-3.309 -6.753,-1.192 -6.886,-1.119c-0.065,0.036 -5.516,4.02 -1.535,8.714c1.486,1.752 2.879,3.583 4.389,5.314c2.409,2.763 4.882,5.47 7.365,8.166c0.787,0.855 1.581,1.701 2.382,2.538c5.603,7.891 14.289,15.153 20.699,20.351c3.397,2.756 6.895,5.394 10.503,7.868l1.236,0.843c2.7,2.262 4.671,3.677 5.52,3.829c0.218,0.152 0.405,0.274 0.515,0.329c0.585,0.294 1.12,0.449 1.569,0.533c1.004,0.621 2.024,1.214 3.065,1.769c1.084,0.578 2.672,1.938 3.864,2.433c1.219,0.507 2.373,0.646 3.358,0.565c2.125,-0.175 3.985,-1.115 5.186,-3.496c1.972,1.438 3.989,2.85 5.471,3.853c0.98,0.663 1.992,1.279 2.986,1.922c0.619,0.401 2.023,1.476 2.53,1.75c0.611,0.331 1.129,0.489 1.481,0.574c2.755,0.666 4.472,-0.561 5.451,-1.574c0.863,-0.894 1.526,-2.078 1.593,-3.723c0.017,-0.394 0.064,-1.166 -0.319,-2.183l0.054,-0.183l0.025,-0.101c0.415,0.364 0.834,0.726 1.256,1.085c1.773,1.511 4.158,4.434 6.172,5.397c2.948,1.409 5.735,1.175 8.257,-1.117l0.113,-0.106c0.492,0.602 1.07,1.274 1.443,1.597c0.964,0.833 1.977,1.304 2.896,1.527c2.098,0.51 4.184,0.185 6.083,-1.834c0.574,-0.611 1.082,-1.406 1.406,-2.369c1.032,0.508 2.202,0.965 3.099,1.048c2.558,0.237 4.612,-0.709 6.002,-2.941c0.94,-1.508 1.408,-3.412 1.343,-5.557c1.516,1.482 3.102,2.872 4.42,3.672c2.679,1.626 5.165,1.638 6.813,1.069c2.315,-0.799 3.691,-2.447 4.187,-4.792c0.087,-0.409 0.115,-0.892 0.104,-1.403c3.277,2.437 5.734,2.716 7.002,2.566c3.251,-0.383 6.381,-2.919 5.733,-8.413c-0.092,-0.78 -0.297,-1.698 -0.579,-2.692l0.73,0.776c1.763,1.845 5.7,5.688 8.5,7.323c0.547,0.319 3.34,1.669 5.36,1.768c2.878,0.14 5.043,-1.135 6.274,-3.372c1.261,-2.292 1.711,-5.002 1.481,-7.895c0.99,1.065 1.957,2.008 2.792,2.661c2.854,2.228 5.639,2.234 7.2,1.709c2.615,-0.878 4.871,-3.254 4.346,-7.601c-0.028,-0.233 -0.071,-0.482 -0.128,-0.745c3.436,2.324 6.39,0.15 7.183,-0.613c2.017,-1.941 3.099,-5.682 2.035,-10.296c-1.191,-5.169 -4.885,-12.123 -5.862,-14.105c3.054,2.835 5.927,5.893 8.694,8.977c1.885,2.101 3.938,5.028 6.306,7.395c2.17,2.169 4.599,3.903 7.241,4.804c3.255,1.109 5.711,0.081 7.488,-2.494c0.69,-0.999 1.294,-2.598 1.501,-4.47c0.267,-2.427 -0.041,-5.478 -0.109,-5.905c-0.686,-4.257 -2.17,-8.305 -3.752,-12.319c2.099,2.127 4.132,4.317 6.189,6.536c3.559,3.84 7.257,5.519 9.91,5.729c2.266,0.18 4.205,-0.444 5.773,-1.65c2.192,-1.686 4.255,-5.296 3.184,-11.458c-0.364,-2.098 -0.727,-4.198 -1.216,-6.27c-1.641,-6.958 -1.815,-6.621 -3.441,-13.821c-0.69,-3.052 -3.728,-4.97 -6.78,-4.28c-3.052,0.689 -4.97,3.727 -4.28,6.779c1.639,7.253 1.812,6.914 3.465,13.924c0.153,0.65 0.292,1.303 0.418,1.959Zm-194.422,38.797c2.162,1.97 4.133,3.712 5.821,5.123l1.426,0.973l2.579,1.735l0.822,0.621l0.693,0.5c0.241,0.043 0.392,-0.015 0.443,-0.185c-2.539,-1.671 -4.982,-3.5 -7.38,-5.339c-1.476,-1.132 -2.945,-2.274 -4.404,-3.428Zm9.826,7.831l0.095,0.064c-0.043,-0.028 -0.153,-0.107 -0.153,-0.107l0.058,0.043Zm-40.802,-37.89l1.494,1.497l-0.131,-0.252c-0.085,-0.171 -0.171,-0.342 -0.256,-0.512l-0.162,-0.341c-0.616,-0.574 -1.236,-1.143 -1.859,-1.708c-0.376,-0.184 -0.737,-0.412 -1.072,-0.686l1.986,2.002Zm-7.18,-7.25l1.174,1.191l-0.142,-0.219l-0.123,-0.218c-0.311,-0.242 -0.613,-0.492 -0.909,-0.754Zm8.77,-6.768l-2.72,-3.215c0.868,1.023 1.702,2.075 2.55,3.115l0.023,0.012l0.147,0.088Z" style="fill:#5c5347;"/><path d="M1196.33,1459.99c-0.812,-1.045 -2.028,-1.798 -3.806,-2.002c-0.531,-0.061 -1.252,-0.072 -2.115,0.137c-0.7,0.169 -2.554,1.12 -3.374,1.491c-1.576,0.712 -3.14,1.458 -4.653,2.297c-4.106,2.278 -7.932,5.243 -11.538,8.224c-3.448,2.849 -6.733,5.869 -9.961,8.944l-0.075,-0.141c-0.906,-1.625 -2.379,-2.817 -4.735,-2.93c-0.557,-0.026 -1.287,0.016 -2.131,0.293c-0.561,0.183 -1.972,1.061 -2.608,1.418c-1.174,0.657 -2.331,1.345 -3.462,2.073c-1.653,1.063 -3.303,2.136 -4.888,3.298l-0.141,0.106c0.067,-0.426 0.102,-0.847 0.106,-1.258c0.015,-2.01 -0.793,-3.276 -1.629,-4.149c-0.834,-0.872 -1.884,-1.474 -3.188,-1.708c-0.842,-0.151 -1.995,-0.164 -3.294,0.326c-0.66,0.249 -1.724,0.954 -2.302,1.267c-1.409,0.762 -2.787,1.584 -4.129,2.458c-0.841,0.549 -1.674,1.11 -2.5,1.683c0.415,-0.598 0.795,-1.182 1.092,-1.7c0.768,-1.34 1.127,-2.547 1.228,-3.317c0.365,-2.802 -0.884,-4.581 -2.397,-5.674c-1.326,-0.957 -3.338,-1.607 -5.892,-1.226c-1.918,0.286 -4.595,1.402 -6.956,2.551l0.008,-0.026c0.632,-2.174 -0.001,-3.666 -0.614,-4.665c-0.752,-1.223 -1.867,-2.143 -3.464,-2.555c-0.592,-0.152 -1.324,-0.243 -2.179,-0.139c-0.643,0.078 -2.189,0.705 -2.891,1.03c-1.18,0.547 -2.384,1.052 -3.512,1.699c-0.365,0.209 -0.758,0.444 -1.172,0.699c-0.557,-0.521 -1.292,-0.999 -2.274,-1.363c-0.937,-0.347 -2.981,-0.632 -5.537,0.27c-3.37,1.19 -9.884,4.882 -10.342,5.116c-2.273,1.168 -4.549,2.341 -6.727,3.679c-1.533,0.942 -3.022,1.954 -4.5,2.982c-0.845,-0.816 -2.049,-1.367 -3.741,-1.448c-0.54,-0.026 -1.551,0.019 -2.781,0.508c-0.715,0.284 -2.062,1.053 -2.721,1.296c-4.57,1.686 -4.332,1.534 -8.915,3.728c-2.791,1.336 -6.086,3.643 -9.501,5.777c-0.463,-1.11 -1.283,-2.081 -2.407,-2.725c-2.715,-1.555 -6.182,-0.614 -7.737,2.101c-0.236,0.411 -3.592,7.07 -3.963,8.389c-0.794,2.82 0.477,4.573 0.946,5.182c1.111,1.443 2.601,2.228 4.537,2.218c2.31,-0.012 4.77,-0.613 7.26,-1.619c0.247,0.744 0.646,1.375 1.097,1.917c0.86,1.033 2.238,2.059 4.432,2.113c0.625,0.015 1.582,-0.08 2.708,-0.453c1.638,-0.541 4.405,-1.97 5.541,-2.631c1.369,-0.797 2.724,-1.673 4.065,-2.587l0.044,0.211c0.357,1.475 1.166,2.607 2.349,3.424c0.8,0.552 1.854,1.025 3.304,1.036c2.915,0.023 5.747,-0.875 8.391,-2.344c0.297,-0.165 0.592,-0.338 0.883,-0.519c0.223,1.428 0.865,2.529 1.71,3.402c0.856,0.884 2.006,1.58 3.509,1.871c1.176,0.227 2.91,0.158 4.809,-0.413c1.6,-0.482 3.415,-1.321 4.873,-2.127c-0.199,0.382 -0.354,0.746 -0.453,1.08c-0.619,2.08 -0.283,3.898 0.562,5.36c0.636,1.1 1.611,2.116 3.192,2.784c2.26,0.955 4.76,0.986 7.242,0.29c2.296,-0.644 4.592,-1.981 6.265,-2.982c1.767,-1.056 3.475,-2.213 5.142,-3.438c0.388,1.978 1.588,3.645 4.288,4.504c2.54,0.808 5.43,0.516 8.248,-0.655c2.652,-1.103 5.269,-3.021 7.002,-4.261l0.432,-0.315c0.536,1.139 1.532,2.147 3.188,2.925c2.204,1.034 5.128,1.048 8.211,-0.302c3.638,-1.594 7.881,-5.365 9.476,-6.751l1.547,-1.365c1.189,1.708 3.044,2.748 5.589,2.841c1.33,0.049 3.066,-0.267 4.85,-0.918c2.721,-0.994 5.705,-2.748 6.35,-3.128c1.309,-0.768 2.583,-1.584 3.826,-2.444c0.67,0.646 1.511,1.194 2.566,1.599c2.828,1.085 5.781,0.996 8.671,0.102c2.955,-0.913 5.851,-2.772 8.175,-4.23c2.675,-1.679 5.221,-3.539 7.7,-5.492c0.367,3.115 2.207,4.957 5.132,5.752c1.401,0.38 3.408,0.386 5.548,-0.102c3.078,-0.701 6.634,-2.345 7.101,-2.579c4.332,-2.165 8.35,-4.863 12.277,-7.716c0.081,1.719 0.891,3.062 2.065,4.088c3.109,2.717 7.315,3.359 11.989,2.068c6.739,-1.861 14.889,-8.348 18.108,-10.664c1.722,-1.24 3.399,-2.542 5.109,-3.801l0.402,-0.299c0.24,1.071 0.733,2.013 1.399,2.823c1.136,1.38 3.481,3.099 8.169,2.595c1.369,-0.147 2.724,-0.401 4.085,-0.604c3.095,-0.461 5.233,-3.347 4.772,-6.442c-0.294,-1.977 -1.578,-3.563 -3.274,-4.33c0.472,-0.561 0.923,-1.102 1.326,-1.608c1.856,-2.329 2.765,-4.512 2.895,-5.667c0.24,-2.138 -0.49,-3.545 -1.269,-4.521c-0.806,-1.009 -1.876,-1.738 -3.266,-2.072c-0.88,-0.212 -2.121,-0.285 -3.562,0.163c-1.006,0.313 -2.653,1.324 -3.566,1.687c-3.256,1.295 -6.469,3.228 -9.333,5.142l-0.02,0.014c0.298,-0.635 0.506,-1.257 0.626,-1.842c0.437,-2.124 -0.232,-3.548 -0.909,-4.523c-0.768,-1.107 -1.846,-1.926 -3.316,-2.302c-0.731,-0.187 -1.723,-0.292 -2.896,-0.013c-0.476,0.113 -1.743,0.674 -2.152,0.859c-1.379,0.475 -2.779,0.891 -4.134,1.43c-3.128,1.244 -6.113,2.631 -9.053,4.247c-2.8,1.539 -5.474,3.288 -8.091,5.135c0.987,-1.464 1.778,-2.979 2.318,-4.535c0.811,-2.336 0.134,-3.923 -0.441,-4.914c-0.818,-1.409 -2.089,-2.451 -4.003,-2.788c-0.598,-0.105 -1.358,-0.144 -2.245,0.035c-0.737,0.148 -2.524,1.099 -3.365,1.46c-1.601,0.687 -3.201,1.39 -4.738,2.212c-2.826,1.513 -7.056,4.107 -9.902,6.05c-9.102,6.211 -16.816,14.367 -26,20.469l0.194,-0.223c1.703,-1.793 3.368,-3.623 5.011,-5.461c5.069,-5.296 10.395,-10.356 15.202,-15.899c3.509,-4.046 0.277,-7.424 -0.139,-7.847c-0.799,-0.812 -3.07,-2.8 -6.545,-1.117c-0.395,0.191 -2.797,2.04 -3.645,2.845c-0.501,0.475 -1.235,1.222 -2.073,2.096Z" style="fill:#5c5347;"/><path d="M1192.97,1472.21c1.236,-1.99 2.461,-4.049 3.472,-6.122c1.984,-4.071 3.166,-8.225 2.901,-12.147c-0.128,-1.886 -0.999,-3.144 -2.085,-4.027c-0.923,-0.75 -2.169,-1.36 -3.899,-1.265c-0.476,0.026 -1.701,0.085 -3.19,1.17c-0.379,0.277 -1.341,1.152 -2.781,2.529c-0.529,-1.793 -1.61,-2.722 -2.498,-3.288c-1.287,-0.821 -2.784,-1.165 -4.508,-0.765c-0.823,0.191 -1.992,0.671 -3.127,1.759c-0.824,0.791 -2.031,2.597 -2.734,3.385c-4.167,4.677 -8.425,9.28 -12.39,14.13c-2.403,2.94 -11.042,12.309 -16.741,20.177c-2.887,3.986 -5.02,7.712 -5.771,10.312c-0.427,1.478 -0.391,2.663 -0.115,3.607c-1.415,1.742 -2.51,3.125 -3.022,3.838c-1.664,2.319 -1.368,4.256 -1.318,4.612c0.381,2.685 1.947,4.1 4.156,4.691c0.732,0.196 2.507,0.674 4.7,-0.805c0.316,-0.213 1.478,-1.226 3.573,-3.481c8.059,-8.674 15.946,-17.446 24.03,-26.06c-0.236,0.773 -0.33,1.459 -0.334,2.01c-0.014,1.923 0.709,3.414 1.895,4.556c0.971,0.936 2.57,1.977 5.306,1.765c6.233,-0.481 13.321,-4.716 20.207,-10.548c7.428,-6.292 14.782,-14.408 20.829,-19.105c-2.657,5.942 -6.94,11.816 -8.936,15.168c-0.229,0.384 -7.194,13.168 -8.487,15.726c-0.646,1.278 -0.75,2.149 -0.768,2.291c-0.277,2.242 0.654,3.57 1.227,4.275c1.054,1.296 2.429,2.015 4.159,2.089c1.82,0.077 4.368,-0.417 7.302,-1.484c4.921,-1.79 11.479,-5.237 17.087,-7.716c2.161,-0.955 5.058,-1.84 6.203,-2.175c1.935,0.956 4.333,0.758 6.108,-0.699c2.419,-1.985 2.771,-5.56 0.786,-7.979c-1.687,-2.056 -4.991,-3.466 -9.7,-2.393c-3.962,0.903 -9.877,3.75 -15.585,6.441c0.795,-1.461 1.349,-2.472 1.41,-2.574c2.263,-3.8 7.155,-10.634 9.993,-17.37c2.46,-5.84 3.261,-11.682 1.467,-16.244c-1.303,-3.312 -3.628,-4.332 -6.222,-4.326c-1.354,0.003 -3.178,0.521 -5.014,1.818c-1.468,1.038 -3.2,2.906 -4.456,3.699c-6.392,4.037 -14.703,13.137 -23.13,20.525Z" style="fill:#5c5347;"/><path d="M1268.91,1458.79l-1.615,0.213c-2.493,0.332 -5.279,0.769 -8.189,1.144c-5.327,-1.406 -11.572,-1.81 -14.562,-1.969c-1.845,-0.097 -5.944,-0.244 -7.965,-0.042c-1.213,0.122 -2.076,0.456 -2.503,0.704c-2.037,1.183 -2.27,2.882 -1.851,4.425c0.169,0.621 0.629,1.928 2.572,2.795l0.32,0.138c-1.844,-0.246 -3.46,-0.424 -4.671,-0.564c-5.157,-0.597 -5.557,-0.428 -10.555,-0.355c-1.164,0.017 -4.176,0.06 -4.599,0.159c-2.584,0.603 -2.894,2.672 -2.95,3.412c-0.029,0.378 -0.18,3.518 3.415,4.087c5.468,0.865 11.153,1.224 16.848,1.29c-3.748,2.393 -7.238,4.989 -10.361,7.78c-0.125,0.112 -0.439,0.442 -0.889,0.944l-0.763,0.139c-0.912,0.161 -1.825,0.322 -2.737,0.483l-2.032,0.351c-4.986,0.043 -11.529,0.12 -16.364,0.298c2.232,-1.384 4.782,-3.018 6.862,-4.472c2.414,-1.687 4.217,-3.279 4.762,-4.084c0.866,-1.28 0.85,-2.438 0.695,-3.205c-0.245,-1.209 -0.916,-2.253 -2.349,-2.859c-4.448,-1.879 -9.142,-2.684 -13.994,-2.774c-0.326,-0.302 -0.736,-0.594 -1.25,-0.86c-5.208,-2.696 -11.756,-3.556 -18.606,-3.296c-9.496,0.361 -19.592,2.832 -26.944,4.643c-2.064,0.509 -4.408,1.159 -6.786,1.878c-2.786,0.152 -5.563,0.491 -8.28,0.896c-0.797,0.119 -1.991,0.182 -3.239,0.251c-1.173,-0.862 -2.437,-1.726 -3.627,-2.484c-1.822,-1.16 -3.461,-2.08 -4.282,-2.437c-0.649,-0.283 -1.159,-0.387 -1.458,-0.423c-2.063,-0.247 -3.126,0.851 -3.668,1.652l-0.007,0.01c-1.286,-0.665 -2.175,-1.127 -2.384,-1.218c-1.79,-0.778 -2.953,-0.227 -3.452,0.02c-0.893,0.442 -1.494,1.119 -1.847,1.988c-0.249,0.615 -0.425,1.446 -0.143,2.478c0.098,0.359 0.359,1.024 0.944,1.762c0.598,0.755 1.985,2.128 2.568,2.784c0.211,0.238 0.643,0.639 1.199,1.14c-0.468,-0.063 -0.91,-0.098 -1.317,-0.097c-7.577,0.019 -15.16,-0.004 -22.734,0.221c-2.428,0.072 -4.858,0.139 -7.282,0.31c-1.885,0.134 -5.775,-0.378 -7.811,-0.196c-1.373,0.122 -2.378,0.554 -2.963,0.97c-1.094,0.778 -1.62,1.798 -1.75,2.93c-0.103,0.9 -0.004,2.204 1.27,3.608c0.616,0.678 1.55,1.374 2.82,1.98c1.912,0.911 4.859,1.741 8.373,2.451c3.112,0.629 6.72,1.182 10.386,1.691c-1.576,0.31 -3.15,0.619 -4.725,0.922c-2.859,0.551 -6.079,1.297 -9.542,2.119c-0.539,-0.682 -1.314,-1.182 -2.232,-1.362c-1.919,-0.377 -3.035,-0.494 -3.505,-0.49c-0.965,0.01 -1.568,0.284 -1.901,0.458c-1.396,0.731 -1.884,1.835 -2.021,2.892c-0.03,0.227 -0.049,0.49 -0.033,0.776c-6.919,1.565 -14.294,3.024 -21.409,3.651c-1.63,0.144 -3.246,0.246 -4.838,0.293c-3.105,-0.661 -6.208,-1.377 -9.344,-2.127c-2.017,-0.482 -4.037,-0.955 -6.071,-1.357c-1.041,-0.206 -3.358,-0.746 -4.515,-0.896c-0.893,-0.116 -1.564,-0.038 -1.892,0.035c-0.749,0.168 -1.307,0.471 -1.724,0.833c-1.772,-0.319 -3.545,-0.632 -5.321,-0.939c-3.745,-0.647 -4.673,2.381 -4.785,2.866c-0.179,0.78 -0.407,2.561 1.507,3.965c0.709,0.52 6.245,2.586 8.498,2.852c3.19,0.377 6.187,1.094 8.93,2.599l0.062,0.039l0.121,0.064c0.582,0.327 1.15,0.69 1.707,1.094c0.803,0.583 1.602,1.166 2.396,1.749c-0.329,-0.002 -0.656,0.001 -0.979,0.008c-2.786,0.064 -5.324,0.485 -7.008,1.401c-1.872,1.019 -2.412,2.342 -2.593,3.24c-0.254,1.263 -0.006,2.542 1.067,3.705c0.63,0.684 2.204,1.588 4.439,2.138c2.588,0.635 6.451,1.14 8.807,1.675c1.47,3.733 4.934,6.747 9.36,8.902c6.213,3.025 14.251,4.478 18.589,5.051c6.086,0.803 12.499,0.854 13.724,0.722c1.129,-0.121 1.903,-0.547 2.432,-1.072c2.936,0.098 5.918,0.1 8.522,0.063c-2.622,2.904 -3.63,6.161 -2.547,9.387c1.594,4.745 5.95,7.908 11.444,9.651c6.827,2.166 15.368,2.212 19.88,1.969c0.435,-0.023 0.87,-0.049 1.303,-0.077c0.081,0.289 0.191,0.553 0.326,0.795c-0.126,0.582 -0.211,1.171 -0.251,1.766c-4.725,0.57 -9.241,1.189 -13.148,1.462c-6.569,0.46 -13.156,0.623 -19.716,1.182c-1.534,0.131 -4.972,0.036 -6.657,0.172c-1.075,0.086 -1.845,0.335 -2.215,0.513c-1.601,0.77 -2.063,2.018 -2.196,2.977c-0.048,0.346 -0.108,1.046 0.145,1.815c-0.685,0.027 -1.22,0.066 -1.395,0.118c-2.304,0.671 -2.672,2.451 -2.753,3.297c-0.047,0.479 -0.239,3.413 3.244,4.158c5.937,1.271 12.136,1.71 18.406,1.645c1.299,0.388 2.591,0.82 3.885,1.232c3.715,1.182 7.441,2.212 11.282,2.222c7.574,0.019 14.926,-1.769 22.225,-4.084c0.365,0.674 0.948,1.242 1.823,1.632c0.459,0.206 1.243,0.432 2.275,0.335c0.714,-0.067 2.057,-0.459 2.712,-0.54c3.694,-0.453 5.129,-0.623 8.722,-1.676c7.586,-2.222 14.908,-5.309 22.242,-8.229c0.795,-0.317 1.637,-0.639 2.519,-0.966c1.157,-0.08 2.314,-0.185 3.468,-0.311c0.158,0.542 0.38,0.918 0.437,1.006c0.349,0.546 1.701,2.417 4.39,1.556c0.476,-0.152 3.57,-1.816 4.782,-2.423c1.986,-0.994 3.971,-1.987 5.957,-2.982l0.826,-0.412c12.395,-3.573 24.186,-9.516 34.527,-17.149c1.759,-1.299 2.03,-2.735 1.911,-3.779c0.497,-0.446 1.002,-0.921 1.521,-1.428c0.796,-0.778 2.578,-2.234 3.324,-3.181c0.711,-0.903 0.991,-1.78 1.071,-2.388c0.052,-0.403 0.05,-0.783 -0.003,-1.14c5.812,-4.624 11.256,-9.655 15.862,-15.299c1.468,-1.798 4.448,-5.404 5.759,-8.849l0.415,-0.379c3.644,-3.36 5.385,-7.12 5.631,-9.811c0.139,-1.531 -0.138,-2.856 -0.687,-3.927l0.033,-0.07c2.608,-5.611 2.941,-11.049 0.045,-15.54l-0.109,-0.162c0.061,-0.68 -0.03,-1.442 -0.383,-2.289c-0.6,-1.437 -1.592,-2.753 -2.902,-3.92c0.983,-0.099 2.17,-0.216 4.022,-0.371c1.24,-0.104 3.617,0.444 4.947,0.379c1.178,-0.058 2.081,-0.409 2.674,-0.797c0.84,-0.55 1.38,-1.281 1.677,-2.138c0.297,-0.855 0.431,-1.99 -0.246,-3.396c-0.061,-0.127 -0.126,-0.252 -0.195,-0.376l0.732,-0.201l0.372,-0.099c3.099,-0.411 6.144,-0.842 9.206,-1.57c1.43,-0.339 5.096,-1.379 5.583,-1.613c2.576,-1.243 2.231,-3.579 2.109,-4.184c-0.059,-0.294 -0.881,-3.551 -4.611,-2.966c-4.402,0.69 -9.008,1.659 -13.678,2.894Zm-116.797,94.601c-4.962,1.244 -9.945,2.394 -14.953,3.405c-1.666,0.337 -3.341,0.632 -5.019,0.905l0.24,-0.009c2.664,-0.08 5.28,-0.029 7.789,0.202c2.58,-0.713 6.065,-1.769 8.998,-2.98c0.991,-0.409 2.132,-1.042 2.945,-1.523Zm33.168,-9.282c-8.455,2.484 -16.934,4.987 -25.462,7.279c0.13,0.314 0.241,0.634 0.332,0.959c8.334,-2.579 16.61,-5.382 24.921,-8.068l0.209,-0.17Zm-42.462,-12.947c-13.346,1.671 -26.739,3.126 -40.065,3.744c-2.241,1.101 -4.716,2.485 -6.688,4.062c-0.83,0.663 -1.564,1.352 -2.085,2.084c-0.303,0.425 -0.628,0.819 -0.474,1.278c0.869,2.587 3.568,3.901 6.564,4.852c3.01,0.955 6.408,1.413 9.532,1.604c-0.856,-0.206 -1.703,-0.434 -2.542,-0.684c-1.934,-0.577 -2.498,-1.778 -2.728,-2.32c-0.38,-0.894 -0.405,-1.781 -0.129,-2.659c0.201,-0.637 0.598,-1.383 1.46,-2.001c0.337,-0.242 1.031,-0.616 2.048,-0.83c1.343,-0.282 4.11,-0.503 5.355,-0.586c2.285,-0.152 4.579,-0.206 6.869,-0.163c2.996,0.057 9.101,0.2 15.581,0.936c1.754,-1.023 3.535,-1.998 5.339,-2.929c-0.338,-0.834 -0.402,-1.742 -0.074,-2.714c0.182,-0.54 0.567,-1.267 1.339,-1.922c0.525,-0.446 1.67,-1.047 2.208,-1.389l0.325,-0.205c-0.753,0.088 -1.356,0.003 -1.835,-0.158Zm0.682,-7.996c-2.146,0.307 -4.288,0.65 -6.419,1.031l0.002,0.004l0.035,0.054l0.423,-0.05c0.804,-0.099 1.609,-0.197 2.413,-0.295l2.981,-0.375l0.163,-0.107l0.402,-0.262Zm-90.098,-9.936c-0.684,0.148 -1.363,0.322 -2.039,0.513l0.413,0.277l0.207,0.137c0.345,-0.362 0.806,-0.684 1.419,-0.927Zm176.214,-6.613c-1.046,0.264 -2.011,0.495 -2.663,0.638c-1.197,0.262 -2.4,0.492 -3.605,0.712c-1.305,0.414 -2.902,0.91 -4.519,1.408c2.291,-0.177 4.567,-0.255 6.821,-0.216c1.298,-0.889 2.62,-1.738 3.966,-2.542Zm-93.093,-5.554c-2.894,0.642 -5.795,1.345 -8.753,2.091c-5.028,1.269 -11.012,2.832 -15.861,5.64c8.426,-0.977 16.943,-1.424 25.41,-1.603l0.777,-0.37c0.513,-0.249 1.025,-0.499 1.536,-0.752l1.091,-0.552c-2.751,0.365 -3.77,-1.783 -3.985,-2.296c-0.054,-0.129 -0.394,-1.066 -0.215,-2.158Zm117.057,-16.985c-0.347,0.006 -1.016,0.03 -1.464,0.124c-2.962,0.623 -6.308,2.458 -7.498,3.065c-5.309,2.707 -9.629,6.61 -14.07,10.413l0.279,0.181c0.097,0.066 0.194,0.132 0.291,0.198l0.076,0.054c0.532,-0.095 1.064,-0.185 1.595,-0.27c3.282,-0.522 4.427,1.815 4.728,2.697c3.372,-2.581 6.951,-4.898 10.738,-6.91c1.683,-0.894 3.185,-1.378 4.507,-1.56c0.565,-1.194 0.992,-2.376 1.235,-3.532c0.334,-1.588 0.302,-3.109 -0.417,-4.46Zm-128.415,9.538c-6.947,0.401 -14.461,1.258 -21.178,3.053c-0.775,0.207 -1.541,0.426 -2.294,0.657l1.16,0.034c0.57,0.017 2.05,0.018 2.257,0.044c1.109,0.138 1.848,0.585 2.339,1.116c2.577,-0.616 4.761,-1.151 6.345,-1.626c6.141,-1.841 7.94,-2.36 11.371,-3.278Zm75.065,-18.86c-2.516,-0.431 -5.098,-0.554 -7.728,-0.452c-2.352,0.563 -6.936,0.886 -9.039,1.348c-3.28,0.719 -6.576,1.367 -9.882,1.956c-1.218,0.305 -2.436,0.617 -3.654,0.928c-1.575,0.403 -3.15,0.804 -4.723,1.193c-0.01,0.359 -0.061,0.712 -0.147,1.055c-0.24,0.959 -0.755,1.906 -1.745,2.735c-1.832,1.536 -4.285,2.53 -7.111,3.043l0.194,0.048c2.353,0.617 4.316,1.668 5.622,3.078l0.63,-0.052l0.766,-0.058c2.404,-0.62 4.825,-1.188 7.255,-1.703c6.928,-2.233 13.817,-4.574 20.478,-7.435c0.416,-0.178 5.13,-3.035 9.084,-5.684Zm-73.614,5.87c-0.24,0.937 -0.677,1.666 -1.213,2.249c-0.913,0.994 -2.212,1.64 -3.901,1.743c-1.204,0.073 -2.764,-0.185 -4.395,-0.598c-1.485,-0.376 -3.066,-0.949 -4.233,-0.946c-3.611,0.009 -7.223,0.008 -10.835,0.03c6.162,0.833 11.686,1.607 14.429,2.472c0.82,0.258 1.424,0.612 1.866,1.009c8.586,-0.839 16.892,-0.883 22.775,-0.862c-5.577,-1.259 -10.934,-3.262 -14.493,-5.097Zm118.361,-4.799c-2.202,1.124 -4.347,2.315 -6.417,3.572c3.106,-0.697 6.202,-1.445 9.297,-2.308c0.114,-0.032 0.234,-0.062 0.359,-0.089c-0.708,-0.314 -1.464,-0.598 -2.246,-0.86c-0.327,-0.109 -0.659,-0.214 -0.993,-0.315Zm-82.583,-3.9c-0.541,0.109 -1.083,0.218 -1.625,0.326l-0.511,0.109l2.337,-0.462l1.194,-0.236l-1.395,0.263Z" style="fill:#5c5347;"/><path d="M1196.67,1449.17c-1.312,0.803 -1.638,2.129 -1.716,2.818c-4.944,0.796 -9.663,2.048 -13.805,4.069c-1.875,0.915 -2.654,3.179 -1.739,5.054c0.914,1.875 3.179,2.654 5.054,1.739c11.256,-5.492 27.141,-4.525 39.376,-5.065c1.264,-0.056 2.882,-0.102 4.642,-0.137c6.084,0.499 12.203,0.667 18.359,-0.225c1.505,-0.218 2.395,-0.881 2.917,-1.622c3.268,0.004 6.528,-0.052 9.774,-0.162c7.819,-0.267 15.659,-0.57 23.472,-1.002c-1.344,1.111 -2.717,2.202 -4.099,3.313c-6.282,5.054 -12.462,10.112 -18.058,15.932c-2.952,3.071 -3.153,3.355 -5.524,6.43c-0.623,0.807 -2.244,2.901 -2.439,3.215c-1.632,2.632 0.367,4.566 0.661,4.832c0.133,0.119 2.962,2.409 5.517,-0.453c3.533,-3.957 7.003,-8.108 10.901,-11.753c-0.632,1.003 -1.133,1.806 -1.448,2.289c-0.206,0.315 -4.805,8.707 -5.428,10.485c-4.026,3.619 -8.147,7.156 -12.323,10.709c-0.725,0.617 -1.023,0.991 -1.074,1.06c-0.855,1.154 -0.768,2.138 -0.732,2.566c0.085,1.024 0.515,1.796 1.125,2.392c0.141,0.138 2.343,2.173 4.939,0.309c0.438,-0.315 2.321,-1.808 4.255,-3.369c-0.721,1.501 -0.382,3.358 0.94,4.497c1.58,1.362 3.968,1.186 5.33,-0.394c8.844,-10.258 17.948,-19.864 26.089,-30.832c1.873,-2.524 6.183,-7.227 8.579,-11.523c1.37,-2.456 2.13,-4.861 2.086,-6.861c-0.043,-1.998 -0.977,-2.955 -1.599,-3.444c-1.035,-0.813 -2.325,-1.172 -3.895,-0.586c-0.555,0.207 -1.407,0.716 -2.251,1.677c-1.137,1.295 -2.882,4.209 -3.971,5.358c-0.45,0.473 -0.896,0.949 -1.339,1.428c-0.137,-0.171 -0.288,-0.331 -0.45,-0.482c-0.319,-0.296 -0.709,-0.581 -1.192,-0.803c3.392,-2.802 6.623,-5.703 9.451,-9.187c1.18,-1.452 1.025,-2.707 0.881,-3.4c-0.271,-1.298 -1.036,-2.419 -2.686,-2.919c-0.452,-0.137 -1.254,-0.267 -2.281,-0.065c-0.88,0.173 -2.544,0.797 -3.34,1c-2.007,0.512 -3.931,0.857 -6.015,0.975c-8.1,0.459 -16.231,0.775 -24.339,1.051c-13.821,0.471 -27.89,-0.078 -41.568,-2.013c-1.447,-0.204 -10.753,-2.289 -15.086,-2.221c-2.692,0.042 -4.372,1.163 -5.023,2.05c-0.912,1.242 -1.038,2.369 -0.928,3.27Z" style="fill:#5c5347;"/></g><g id="Layer7"><path d="M1018.28,1070.6c-23.148,-4.117 -48.332,-4.607 -71.854,-7.203c-36.866,-4.068 -78.741,-14.38 -115.666,-4.312c-7.935,2.164 -15.145,5.766 -22.696,8.904c-17.111,7.11 -31.285,15.034 -46.588,25.681c-0,0 22.087,-22.032 33.882,-30.975c10.405,-7.889 23.327,-17.804 35.963,-22.024c19.307,-6.447 40.767,-4.525 60.761,-4.525c39.909,-0.001 119.946,7.839 123.779,7.197c3.257,8.717 1.946,16.947 2.419,27.257Z" style="fill:#5c5347;"/><path d="M1017.62,1074.32c1.131,0.201 2.292,-0.123 3.155,-0.88c0.863,-0.758 1.335,-1.867 1.282,-3.014c-0.493,-10.75 0.743,-19.319 -2.654,-28.407c-0.633,-1.696 -2.38,-2.704 -4.165,-2.405c0.032,-0.005 0.133,-0.02 0.133,-0.02c0,0 -4.645,-0.163 -9.755,-0.524c-23.785,-1.682 -81.53,-6.705 -113.532,-6.705c-20.39,0 -42.268,-1.855 -61.958,4.72c-13.004,4.342 -26.342,14.479 -37.049,22.597c-11.926,9.042 -34.268,31.311 -34.268,31.311c-1.387,1.383 -1.487,3.597 -0.232,5.099c1.256,1.503 3.452,1.798 5.059,0.68c15.071,-10.486 29.029,-18.291 45.881,-25.294c7.402,-3.076 14.462,-6.626 22.24,-8.747c36.476,-9.947 77.837,0.403 114.256,4.422c23.441,2.587 48.54,3.065 71.607,7.167Zm-3.216,-8.201c-21.955,-3.446 -45.487,-4.044 -67.562,-6.48c-37.313,-4.117 -79.702,-14.392 -117.074,-4.201c-8.092,2.207 -15.452,5.859 -23.152,9.059c-5.917,2.459 -11.488,5.014 -16.876,7.74c2.865,-2.504 5.585,-4.773 7.904,-6.531c10.102,-7.66 22.607,-17.354 34.876,-21.451c18.924,-6.319 39.967,-4.331 59.564,-4.331c31.852,-0 89.325,5.012 112.998,6.686c3.34,0.236 6.062,0.388 8.023,0.461c1.711,6.139 1.282,12.158 1.299,19.048l0,0Z" style="fill:#5c5347;"/><path d="M1195.91,1022.2c-1.827,7.512 -2.315,15.165 -6.599,22.862c5.041,6.453 70.941,-14.889 93.492,-22.265c20.463,-6.694 40.823,-11.376 61.553,-16.817c10.196,-2.677 23.794,-7.593 34.601,-7.078c11.307,0.539 19.883,5.686 39.504,14.055c1.681,0.717 22.86,5.954 22.988,1.353c0.046,-1.647 -15.267,-9.492 -16.788,-10.299c-11.047,-5.858 -15.054,-8.708 -24.171,-14.707c-4.755,-3.128 -11.561,-9.314 -18.876,-10.033c-0,-0 -41.838,3.689 -66.276,8.85c-27.833,5.877 -54.098,12.625 -81.22,21.389c-9.546,3.085 -20.629,6.493 -29.912,10.029l-8.296,2.661Z" style="fill:#5c5347;"/><path d="M1194.76,1018.61c-1.253,0.402 -2.207,1.426 -2.518,2.705c-1.749,7.193 -2.126,14.546 -6.229,21.917c-0.739,1.327 -0.611,2.968 0.324,4.165c0.709,0.907 1.843,1.73 3.525,2.189c1.98,0.541 5.223,0.603 9.394,0.107c20.346,-2.416 66.532,-17.345 84.727,-23.296c20.391,-6.67 40.681,-11.331 61.338,-16.754c9.866,-2.59 23.003,-7.456 33.461,-6.957c10.949,0.522 19.201,5.651 38.201,13.755c1.273,0.543 12.868,3.522 19.763,3.529c2.415,0.002 4.38,-0.411 5.598,-1.059c1.915,-1.02 2.835,-2.57 2.888,-4.487c0.017,-0.608 -0.093,-1.333 -0.512,-2.116c-0.33,-0.616 -1.19,-1.626 -2.621,-2.67c-4.066,-2.966 -14.408,-8.293 -15.662,-8.958c-10.908,-5.784 -14.862,-8.602 -23.864,-14.525c-5.154,-3.391 -12.656,-9.858 -20.585,-10.638c-0.233,-0.023 -0.468,-0.024 -0.701,-0.003c-0,-0 -42.121,3.721 -66.725,8.917c-27.964,5.905 -54.352,12.685 -81.601,21.491c-9.577,3.095 -20.691,6.516 -30.014,10.062c0.016,-0.006 -8.187,2.626 -8.187,2.626Zm235.905,-6.774c-4.962,-0.759 -9.962,-2.026 -10.716,-2.348c-20.243,-8.634 -29.142,-13.797 -40.807,-14.353c-11.156,-0.532 -25.215,4.434 -35.74,7.197c-20.803,5.461 -41.234,10.163 -61.769,16.881c-15.696,5.133 -52.509,17.082 -74.906,21.582c-4.852,0.975 -8.986,1.605 -12.003,1.685c2.345,-5.825 3.141,-11.608 4.391,-17.328l0.001,-0.001l6.25,-2.006c0.064,-0.02 0.127,-0.042 0.19,-0.066c9.226,-3.514 20.242,-6.899 29.729,-9.964c26.995,-8.724 53.137,-15.438 80.839,-21.288c22.925,-4.842 61.266,-8.373 65.452,-8.75c2.973,0.377 5.81,1.86 8.423,3.51c3.189,2.014 6.058,4.329 8.419,5.883c9.232,6.074 13.291,8.957 24.478,14.888c0.618,0.328 4.205,2.405 7.769,4.478Z" style="fill:#5c5347;"/></g><g id="Layer8"><path d="M1222.87,1113.65c11.003,-11.077 21.65,-22.491 34.342,-31.713c9.185,-6.674 18.928,-11.718 29.247,-16.382c22.249,-10.055 50.488,-7.071 71.476,5c15.143,8.71 29.678,21.879 45.934,28.224c6.098,2.38 13.974,2.949 20.419,4.215c2.047,0.402 4.035,-0.933 4.438,-2.98c0.402,-2.047 -0.934,-4.035 -2.981,-4.437c-6.031,-1.185 -13.421,-1.612 -19.128,-3.84c-15.916,-6.213 -30.086,-19.206 -44.913,-27.734c-23.006,-13.232 -53.97,-16.358 -78.358,-5.336c-10.792,4.877 -20.97,10.175 -30.577,17.155c-13.021,9.461 -23.974,21.137 -35.262,32.501c-1.47,1.48 -1.462,3.875 0.018,5.345c1.48,1.47 3.875,1.462 5.345,-0.018Z" style="fill:#5c5347;"/><path d="M1221.11,1112.08c4.826,-9.971 16.647,-19.55 24.373,-27.46c7.806,-7.991 17.675,-14.764 27.35,-20.304c32.413,-18.559 75.487,-8.635 105.244,10.976c14.769,9.733 28.496,22.666 46.031,27.171c2.021,0.519 4.083,-0.7 4.602,-2.72c0.519,-2.02 -0.7,-4.082 -2.72,-4.601c-16.724,-4.297 -29.668,-16.879 -43.753,-26.162c-31.979,-21.075 -78.327,-31.168 -113.16,-11.224c-10.268,5.879 -20.717,13.102 -29.001,21.583c-8.234,8.429 -20.627,18.821 -25.77,29.448c-0.909,1.878 -0.122,4.14 1.756,5.049c1.877,0.908 4.139,0.122 5.048,-1.756Z" style="fill:#5c5347;"/><path d="M1011.26,1135.89c-0.254,-2.69 -1.75,-4.997 -3.97,-6.856c-2.335,-1.954 -5.536,-3.394 -7.682,-4.522c-10.059,-5.285 -19.399,-11.933 -29.771,-16.594c-37.748,-16.963 -82.752,-14.838 -113.706,15.206c-12.643,12.27 -23.656,27.323 -40.847,42.526c-1.563,1.382 -1.71,3.772 -0.328,5.335c1.382,1.562 3.772,1.709 5.335,0.327c17.294,-15.293 28.387,-30.42 41.105,-42.764c28.665,-27.822 70.386,-29.444 105.342,-13.735c10.231,4.598 19.432,11.177 29.354,16.391c1.518,0.797 3.682,1.736 5.505,2.993c0.985,0.678 2.035,1.323 2.137,2.403c0.196,2.077 2.042,3.604 4.118,3.408c2.077,-0.196 3.604,-2.041 3.408,-4.118Z" style="fill:#5c5347;"/><path d="M820.577,1171.82c10.142,-6.187 12.163,-9.753 19.22,-15.448c13.373,-10.793 25.014,-21.225 39.481,-30.83c35.967,-23.879 91.356,-13.388 123.174,13.057c1.604,1.333 3.989,1.113 5.322,-0.491c1.334,-1.604 1.114,-3.989 -0.491,-5.322c-34.132,-28.37 -93.602,-39.159 -132.186,-13.542c-14.67,9.74 -26.487,20.302 -40.047,31.246c-6.774,5.466 -8.675,8.938 -18.41,14.877c-1.781,1.086 -2.345,3.414 -1.258,5.194c1.086,1.781 3.414,2.345 5.195,1.259Z" style="fill:#5c5347;"/><path d="M914.584,1100.59c-22.758,1.547 -47.719,13.706 -63.246,30.608c-6.772,7.372 -12.673,15.313 -19.585,22.537c-3.293,3.441 -8.241,5.299 -12.27,8.298c-1.673,1.246 -2.021,3.615 -0.775,5.289c1.245,1.673 3.615,2.02 5.289,0.775c4.37,-3.253 9.646,-5.404 13.217,-9.136c6.949,-7.261 12.884,-15.24 19.69,-22.649c14.288,-15.554 37.251,-26.756 58.193,-28.181c2.081,-0.141 3.656,-1.946 3.515,-4.027c-0.142,-2.081 -1.947,-3.656 -4.028,-3.514Z" style="fill:#5c5347;"/><path d="M1337.01,1134.99c7.733,-11.191 5.83,-38.874 0.61,-48.565c-15.099,-28.03 -63.898,-30.583 -77.497,-5.316c-10.053,18.678 -7.019,54.435 12.528,68.913c19.042,14.105 37.547,13.994 56.405,-4.54l7.954,-10.492Z" style="fill:#5c5347;"/><path d="M1340.02,1137.28c0.034,-0.044 0.066,-0.089 0.098,-0.134c3.413,-4.94 5.266,-12.753 5.723,-21.08c0.663,-12.098 -1.549,-25.212 -4.896,-31.426c-9.772,-18.143 -32.54,-26.589 -52.432,-24.398c-13.582,1.497 -25.711,7.917 -31.72,19.083c-5.356,9.951 -7.319,24.438 -5.246,38.378c2.096,14.101 8.319,27.562 18.852,35.364c10.343,7.661 20.584,11.336 30.756,10.704c10.145,-0.63 20.333,-5.546 30.549,-15.586c0.13,-0.128 0.252,-0.266 0.362,-0.412l7.954,-10.493Zm-6.078,-4.494l-7.731,10.198c-8.576,8.37 -17.006,12.714 -25.525,13.243c-8.555,0.531 -17.088,-2.791 -25.787,-9.235c-9.015,-6.677 -14.081,-18.333 -15.876,-30.4c-1.817,-12.227 -0.271,-24.957 4.426,-33.684c4.87,-9.049 14.885,-13.939 25.891,-15.152c16.99,-1.872 36.604,4.974 44.95,20.468c2.917,5.416 4.581,16.885 4.003,27.428c-0.369,6.72 -1.604,13.095 -4.337,17.114l-0.014,0.02Z" style="fill:#5c5347;"/><path d="M918.98,1119.75c-5.921,-1.846 -12.329,-3.676 -18.65,-3.133c-39.232,3.37 -48.138,43.934 -28.444,71.787c3.447,4.876 9.417,8.776 14.437,12.154c4.552,3.064 9.69,5.308 15.047,6.809c8.601,2.409 19.835,4.307 27.901,-0.538c22.453,-13.488 20.971,-59.507 4.916,-76.114c0,0 -3.219,-7.227 -15.207,-10.965Z" style="fill:#5c5347;"/><path d="M920.105,1116.14c-6.377,-1.988 -13.292,-3.876 -20.098,-3.291c-17.12,1.471 -28.887,9.538 -35.541,20.509c-9.86,16.257 -8.402,39.214 4.334,57.226c3.696,5.227 10.031,9.486 15.413,13.108c4.883,3.286 10.391,5.702 16.138,7.312c9.517,2.666 21.941,4.424 30.866,-0.937c9.869,-5.929 15.728,-17.461 17.839,-30.471c3.037,-18.719 -1.731,-40.282 -11.742,-51.077c-1.134,-2.091 -5.543,-8.742 -17.209,-12.379Zm-2.25,7.216c10.009,3.121 12.88,8.895 12.88,8.895c0.179,0.403 0.428,0.772 0.735,1.089c8.977,9.285 12.81,28.495 10.125,45.045c-1.732,10.672 -6.176,20.339 -14.27,25.202c-7.207,4.329 -17.25,2.291 -24.935,0.138c-4.968,-1.391 -9.736,-3.464 -13.957,-6.305c-4.658,-3.134 -10.262,-6.676 -13.461,-11.2c-10.898,-15.413 -12.48,-35.031 -4.043,-48.942c5.545,-9.141 15.459,-15.672 29.725,-16.897c5.834,-0.502 11.735,1.271 17.201,2.975Z" style="fill:#5c5347;"/><path d="M855.529,1147.51c0.226,-0.709 0.246,-1.491 0.01,-2.256c-0.841,-2.728 -2.743,-3.04 -3.115,-3.113c-1.027,-0.201 -1.985,-0.013 -2.868,0.586c-0.497,0.338 -1.262,0.982 -1.58,2.302c-0.071,0.292 -0.158,0.974 -0.11,1.892c0.084,1.602 0.491,4.826 0.522,5.175c0.334,3.857 0.607,7.726 1.039,11.573c1.267,11.263 5.214,21.331 9.877,31.581c14.022,30.824 38.083,64.006 75.553,66.122c26.173,1.479 51.921,-21.922 58.301,-46.717c5.803,-22.554 0.254,-58.566 0.561,-83.37c0.026,-2.086 -1.647,-3.8 -3.733,-3.826c-2.086,-0.026 -3.8,1.647 -3.826,3.733c-0.3,24.271 5.356,59.51 -0.323,81.579c-5.561,21.614 -27.738,42.343 -50.553,41.054c-34.574,-1.953 -56.161,-33.264 -69.1,-61.705c-4.329,-9.516 -8.069,-18.839 -9.245,-29.295c-0.425,-3.784 -0.691,-7.589 -1.021,-11.382c-0.02,-0.237 -0.244,-2.482 -0.389,-3.933Z" style="fill:#5c5347;"/><path d="M1243.49,1089.77c5.084,14.193 6.423,29.045 8.702,43.681c2.396,15.389 5.809,30.538 14.96,44.587c5.963,9.156 17.715,17.974 30.784,23.672c13.184,5.748 27.655,8.271 38.724,5.263c5.166,-1.404 10.65,-5.053 15.698,-9.756c7.154,-6.665 13.487,-15.402 16.93,-21.885c4.371,-8.229 6.658,-20.702 7.858,-34.343c1.723,-19.589 1.311,-41.646 2.607,-56.096c0.186,-2.078 -1.35,-3.916 -3.427,-4.102c-2.078,-0.186 -3.916,1.349 -4.102,3.427c-1.296,14.453 -0.885,36.516 -2.608,56.108c-1.098,12.48 -3.005,23.932 -7.004,31.461c-3.131,5.897 -8.899,13.837 -15.406,19.899c-4.059,3.782 -8.375,6.863 -12.528,7.992c-9.652,2.623 -22.225,0.115 -33.721,-4.897c-11.61,-5.062 -22.174,-12.735 -27.471,-20.869c-8.534,-13.102 -11.59,-27.272 -13.825,-41.624c-2.352,-15.106 -3.807,-30.419 -9.055,-45.067c-0.703,-1.964 -2.869,-2.987 -4.833,-2.283c-1.963,0.703 -2.987,2.869 -2.283,4.832Z" style="fill:#5c5347;"/><path d="M801.784,1135.18c1.7,15.982 9.145,25.633 22.425,32.715c1.841,0.982 4.132,0.285 5.114,-1.556c0.981,-1.841 0.284,-4.132 -1.557,-5.113c-10.909,-5.818 -17.069,-13.717 -18.466,-26.845c-0.22,-2.075 -2.083,-3.58 -4.158,-3.359c-2.074,0.221 -3.579,2.084 -3.358,4.158Z" style="fill:#5c5347;"/><path d="M818.984,1122.37c-0.665,12.009 3.39,24.414 11.561,33.357c1.407,1.54 3.8,1.648 5.34,0.241c1.54,-1.407 1.647,-3.8 0.24,-5.34c-6.815,-7.459 -10.148,-17.823 -9.593,-27.84c0.115,-2.083 -1.482,-3.868 -3.565,-3.983c-2.083,-0.115 -3.868,1.482 -3.983,3.565Z" style="fill:#5c5347;"/><path d="M1409.04,1095.9c10.835,-6.332 17.763,-19.266 21.385,-30.981c0.616,-1.993 -0.502,-4.111 -2.495,-4.727c-1.992,-0.617 -4.111,0.501 -4.727,2.494c-3.096,10.014 -8.715,21.276 -17.977,26.688c-1.801,1.053 -2.409,3.369 -1.356,5.17c1.052,1.801 3.369,2.409 5.17,1.356Z" style="fill:#5c5347;"/><path d="M1395.74,1086.72c10.418,-7.594 19.148,-17.838 22.608,-30.476c0.55,-2.012 -0.636,-4.092 -2.648,-4.643c-2.012,-0.551 -4.093,0.636 -4.643,2.648c-3.004,10.975 -10.723,19.768 -19.769,26.362c-1.686,1.229 -2.057,3.595 -0.828,5.281c1.228,1.685 3.595,2.056 5.28,0.828Z" style="fill:#5c5347;"/></g><g id="Layer5"><path d="M783.902,1124.43c5.009,-8.484 16.442,-12.588 25.34,-15.799c25.4,-9.164 51.361,-11.748 77.899,-15.04c26.359,-3.269 53.103,-0.745 78.615,6.325c18.818,5.214 37.99,15.088 51.966,28.92c26.687,26.413 32.966,56.618 28.606,93.42c-1.659,13.998 -3.11,27.411 -11.979,39.144c-32.384,42.839 -82.185,64.535 -135.105,63.936c-19.172,-0.217 -45.374,-2.738 -66.636,-12.052c-13.339,-5.844 -24.742,-14.359 -30.629,-27.037c-1.318,-2.838 -4.692,-4.072 -7.53,-2.755c-2.838,1.318 -4.072,4.692 -2.754,7.53c7.042,15.165 20.408,25.658 36.364,32.647c22.681,9.936 50.605,12.773 71.057,13.005c56.537,0.64 109.681,-22.67 144.278,-68.437c10.151,-13.427 12.295,-28.627 14.193,-44.647c4.804,-40.548 -2.486,-73.712 -31.889,-102.813c-15.319,-15.162 -36.287,-26.073 -56.914,-31.788c-26.946,-7.467 -55.197,-10.104 -83.039,-6.65c-27.38,3.396 -54.144,6.172 -80.351,15.627c-11.17,4.03 -24.967,10.048 -31.256,20.7c-1.591,2.694 -0.695,6.173 1.999,7.764c2.695,1.591 6.174,0.695 7.765,-2Z" style="fill:#5c5347;"/><path d="M1181.84,1187.54c-4.334,-13.99 -16.293,-27.052 -30.906,-35.782c-14.614,-8.73 -31.774,-13.06 -46.11,-10.253c-20.901,4.092 -42.728,25.255 -50.525,44.598c-1.17,2.902 0.236,6.208 3.139,7.378c2.902,1.17 6.207,-0.237 7.377,-3.139c6.547,-16.24 24.639,-34.274 42.188,-37.71c11.876,-2.325 26.009,1.628 38.116,8.86c12.109,7.234 22.299,17.811 25.89,29.403c0.926,2.989 4.105,4.664 7.093,3.738c2.989,-0.926 4.664,-4.104 3.738,-7.093Z" style="fill:#5c5347;"/><path d="M1045.59,1148.97c9.969,-10.393 23.403,-11.625 36.844,-14.759c29.188,-6.805 62.654,-9.941 90.594,3.036c2.838,1.318 6.212,0.084 7.53,-2.754c1.318,-2.837 0.084,-6.211 -2.754,-7.529c-30.213,-14.034 -66.382,-11.154 -97.944,-3.795c-15.61,3.64 -30.876,5.883 -42.453,17.953c-2.166,2.258 -2.091,5.85 0.167,8.015c2.259,2.166 5.85,2.091 8.016,-0.167Z" style="fill:#5c5347;"/><path d="M1175.72,1185.91c-0.277,0.809 -0.373,1.693 -0.248,2.598c2.011,14.527 9.927,28.712 16.903,41.401c11.658,21.204 31.412,44.985 53.511,55.892c27.289,13.469 64.799,16.929 94.287,10.047c5.79,-1.351 10.546,-5.024 16.174,-6.7c2.183,-0.651 4.428,-0.765 6.663,-0.962c3.114,-0.274 6.213,-0.658 9.239,-1.782c15.548,-5.775 28.635,-14.365 42.447,-23.223c11.152,-7.152 22.42,-14.918 31.147,-25.072c21.225,-24.7 20.363,-56.406 19.265,-86.79c-0.616,-17.048 -0.121,-35.468 -4.768,-52.042c-10.89,-38.844 -44.034,-65.738 -82.989,-73.056c-17.453,-3.278 -36.163,0.102 -53.474,1.905c-21.975,2.288 -45.74,6.454 -66.646,14.435c-15.585,5.949 -29.825,17.253 -41.321,28.841c-7.912,7.975 -16.567,14.665 -23.249,23.925c-14.589,20.217 -18.337,44.754 -18.163,68.922c0.052,7.244 0.26,14.501 1.222,21.661Zm14.396,13.96c3.215,8.587 7.954,16.862 12.195,24.576c10.634,19.342 28.436,41.239 48.593,51.187c25.089,12.383 59.582,15.5 86.692,9.173c5.567,-1.299 10.104,-4.914 15.515,-6.525c2.922,-0.871 5.911,-1.126 8.903,-1.389c2.113,-0.187 4.234,-0.355 6.288,-1.117c14.767,-5.485 27.154,-13.725 40.273,-22.138c10.237,-6.566 20.658,-13.597 28.668,-22.918c19.268,-22.422 17.531,-51.409 16.534,-78.991c-0.585,-16.174 0.055,-33.665 -4.354,-49.39c-9.713,-34.641 -39.426,-58.447 -74.165,-64.973c-16.39,-3.079 -33.951,0.346 -50.207,2.038c-21.025,2.189 -43.774,6.116 -63.776,13.751c-14.108,5.385 -26.909,15.744 -37.316,26.234c-7.493,7.553 -15.775,13.804 -22.104,22.574c-13.148,18.22 -16.176,40.424 -16.019,62.205c0.081,11.192 0.432,22.436 4.031,33.203c0.278,0.833 0.352,1.684 0.249,2.5Z" style="fill:#5c5347;"/><path d="M1451.84,1076.45c-1.188,1.007 -1.958,2.496 -2.002,4.174c-0.082,3.128 2.39,5.734 5.518,5.816c8.942,0.235 17.86,0.338 26.798,-0.084c3.814,-0.18 7.607,-0.694 11.421,-0.876c7.791,-0.373 15.73,-0.581 23.551,-0.599c5.753,-0.014 5.904,-5.599 5.898,-5.827c-0.013,-0.512 -0.245,-4.781 -4.871,-5.471c-0.365,-0.055 -3.01,-0.209 -4.023,-0.324c-2.659,-0.3 -2.421,-0.265 -5.168,-0.495c-4.883,-0.408 -9.781,-0.448 -14.672,-0.751c-12.661,-0.785 -26.435,-1.383 -38.337,-6.129c-2.199,-0.876 -4.493,-1.665 -6.539,-2.724c-1.834,-0.95 -3.515,-2.09 -4.027,-4.384c-0.682,-3.054 -3.715,-4.979 -6.769,-4.297c-3.054,0.682 -4.979,3.715 -4.297,6.768c1.14,5.106 4.05,8.412 7.851,10.821c2.85,1.808 6.288,3.035 9.582,4.349l0.086,0.033Z" style="fill:#5c5347;"/><path d="M1479.02,1082.94c-6.035,0.545 -12.046,1.336 -17.429,3.094c-5.057,1.65 -4.308,5.981 -4.167,6.686c0.089,0.44 0.247,1.047 0.573,1.676c-0.836,1.402 -1.211,2.983 -1.051,4.756c0.061,0.675 0.189,1.27 0.375,1.793l-0.733,0.512c-4.116,2.926 -2.298,6.591 -1.925,7.329c0.611,1.209 1.985,3.191 5.221,3.123c0.194,-0.004 0.817,-0.168 1.557,-0.38c-2.936,2.616 -5.335,5.558 -6.948,8.852l-0.079,0.174l-2.599,1.344c-2.772,1.45 -3.847,4.878 -2.397,7.651c1.45,2.773 4.878,3.847 7.651,2.397c13.79,-7.21 27.901,-13.262 41.974,-19.823c3.341,-1.558 6.558,-3.643 9.888,-5.457c2.591,-0.939 5.215,-1.786 7.793,-2.76c1.168,-0.442 4.197,-1.548 4.592,-1.799c3.272,-2.081 2.769,-5.066 2.491,-6.185c-0.144,-0.578 -1.328,-5.045 -6.615,-4.226c-0.329,0.051 -0.656,0.109 -0.981,0.174c-0.117,-0.27 -0.25,-0.524 -0.395,-0.763c0.682,-0.122 1.175,-0.357 1.513,-0.677c0.615,-0.356 1.223,-0.819 1.786,-1.353l0.898,-0.439c4.166,-2.117 3.46,-5.515 3.196,-6.605c-0.334,-1.38 -1.17,-3.083 -3.505,-3.997c-0.462,-0.181 -1.394,-0.451 -2.679,-0.439c-1.059,0.009 -3.193,0.273 -4.158,0.275c-3.194,0.008 -8.552,0.058 -11.486,0.394c-7.45,0.854 -15.097,2.279 -22.361,4.673Z" style="fill:#5c5347;"/></g><g id="Layer2"><path d="M1053.22,555.821c13.222,-19.449 34.129,-28.95 57.359,-33.411c39.601,-7.604 85.884,-0.741 120.565,4.987c60.333,9.964 188.934,46.083 239.236,78.49c36.944,23.8 62.117,58.063 96.128,84.854c17.351,13.668 40.002,24.347 61.794,35.744c18.691,9.775 36.832,19.93 48.492,34.593c11.234,14.128 7.566,31.206 3.64,48.619c-5.622,24.941 -13.141,50.679 -8.042,73.709c5.692,25.712 19.269,43.043 35.844,58.167c13.838,12.626 29.996,23.497 43.832,38.168c27.799,29.475 56.014,67.76 48.589,110.355c-2.584,14.825 -8.442,29.242 -13.279,43.864c-5.777,17.464 -10.181,35.181 -8.895,53.707c1.045,15.063 9.575,29.452 19.066,42.93c4.081,5.796 8.259,11.419 11.255,17.002c1.651,3.078 3.168,5.97 2.921,9.005c-0.203,2.488 -2.043,4.602 -4.869,7.117c-5.839,5.197 -15.066,10.227 -28.53,15.607c-8.542,3.413 -12.706,13.12 -9.292,21.661c3.413,8.542 13.119,12.706 21.661,9.293c34.201,-13.667 47.924,-28.721 52.351,-41.789c5.093,-15.032 -0.249,-30.484 -10.481,-45.92c-4.596,-6.933 -10.086,-13.997 -14.548,-21.323c-3.13,-5.139 -5.895,-10.322 -6.281,-15.89c-0.982,-14.149 2.877,-27.594 7.289,-40.931c5.352,-16.181 11.611,-32.204 14.471,-48.609c9.251,-53.078 -22.538,-102.22 -57.178,-138.949c-14.43,-15.301 -31.182,-26.754 -45.615,-39.922c-11.696,-10.672 -21.749,-22.605 -25.766,-40.748c-4.106,-18.547 3.486,-39.087 8.015,-59.173c6.228,-27.628 7.756,-54.282 -10.068,-76.697c-14.357,-18.054 -36.121,-31.348 -59.134,-43.384c-19.912,-10.413 -40.762,-19.903 -56.616,-32.391c-34.845,-27.448 -60.851,-62.307 -98.701,-86.691c-53.001,-34.145 -188.287,-72.857 -251.858,-83.356c-38.044,-6.283 -88.84,-13.176 -132.282,-4.834c-32.134,6.171 -60.35,20.502 -78.64,47.406c-5.171,7.607 -3.193,17.982 4.414,23.153c7.607,5.172 17.982,3.194 23.153,-4.413Z" style="fill:#5c5347;"/><path d="M1380.44,818.233c-19.717,-5.461 -29.949,-3.931 -40.299,-1.352c-7.572,1.887 -15.226,4.944 -30.777,4.528c-1.309,-0.035 -2.335,-1.036 -3.496,-1.74c-2.36,-1.429 -4.651,-3.05 -6.926,-4.493c-7.099,-4.503 -14.388,-7.252 -21.682,-6.88c-10.794,0.552 -20.478,5 -29.872,10.323c-3.833,2.172 -7.62,4.473 -11.563,6.259c-2.82,1.278 -5.726,2.359 -8.959,2.253c-1.676,-1.931 -5.215,-5.914 -7.255,-7.539c-3.565,-2.842 -7.441,-4.495 -11.513,-5.01c-6.221,-0.785 -14.668,1.63 -23.231,7.903c-5.184,3.798 -10.931,9.087 -16.55,13.618c-2.487,2.005 -6.834,4.693 -7.58,5.15c-1.568,0.105 -2.845,-0.684 -4.159,-1.197c-1.824,-0.712 -3.625,-1.47 -5.456,-2.137c-6.616,-2.41 -13.518,-3.703 -21.637,-1.95c-10.981,2.371 -21.058,7.613 -31.131,12.771c-6.389,3.27 -12.733,6.623 -19.785,7.764c-2.056,-1.36 -8.916,-5.871 -12.251,-7.852c-7.958,-4.727 -15.504,-5.179 -20.918,-3.276c-8.951,3.147 -16.811,8.532 -24.43,14.353c-5.862,4.479 -11.353,9.628 -18.144,12.168l-0.909,-1.435c-1.486,-2.276 -3.077,-4.183 -4.669,-5.631c-5.459,-4.962 -11.614,-6.627 -18.802,-4.655c-11.23,3.082 -21.191,9.475 -31.12,15.905c-6.639,4.3 -13.188,8.787 -20.987,10.223c-0.722,0.133 -1.173,-0.483 -1.702,-0.781c-1.288,-0.725 -2.514,-1.551 -3.729,-2.339c-3.162,-2.051 -6.318,-3.902 -9.561,-5.147c-7.196,-2.761 -14.849,-3.318 -23.882,1.201c-10.099,5.053 -23.39,14.591 -37.145,21.958c-4.944,2.648 -9.873,5.303 -14.629,6.829c0.034,-0.42 0.051,-0.797 0.054,-1.121c0.029,-4.363 -1.102,-7.812 -2.452,-10.251c-0.929,-1.679 -4.914,-8.927 -15.279,-8.612c-1.607,0.049 -9.124,1.305 -10.294,1.619c-9.502,2.549 -18.407,7.756 -27.241,13.197c-2.557,1.574 -5.079,3.256 -7.641,4.787c4.858,-7.814 10.349,-15.272 13.932,-21.323c4.687,-7.915 2.067,-18.146 -5.848,-22.833c-7.915,-4.687 -18.146,-2.067 -22.833,5.848c-4.986,8.419 -13.515,19.518 -19.218,30.556c-5.342,10.341 -8.219,20.833 -7.28,30.018c0.563,5.511 3.115,9.464 6.913,12.363c2.975,2.271 14.056,3.882 14.056,3.882c0,0 -0.493,-0.022 -0.705,-0.042c12.301,1.165 23.349,-2.255 33.826,-7.723c5.44,-2.839 10.631,-6.453 15.911,-9.665c2.123,6.245 6.402,10.031 12.099,11.8c13.024,4.042 28.12,1.373 43.133,-5.377c15.865,-7.133 31.839,-18.859 43.824,-25.199c2.196,1.395 6.831,4.286 9.779,5.761c6.387,3.195 13.469,4.938 21.95,3.376c12.135,-2.235 22.738,-8.336 33.068,-15.026c4.439,-2.875 8.79,-5.923 13.396,-8.328c1.277,1.676 2.628,3.273 3.823,4.326c5.321,4.687 11.955,7.467 20.866,5.999c10.471,-1.725 19.445,-6.484 27.845,-12.446c6.782,-4.813 12.948,-10.808 20.216,-14.638c3.386,2.299 8.961,5.963 12.552,7.703c5.505,2.668 11.02,3.758 16.039,3.234c11.931,-1.244 22.745,-6.064 33.363,-11.5c7.484,-3.832 14.816,-8.097 22.974,-9.859c1.385,-0.299 2.475,0.415 3.599,0.838c1.679,0.631 3.334,1.337 5.017,1.981c6.337,2.421 12.963,3.97 20.727,2.848c8.788,-1.268 20.349,-9.469 30.715,-18.323c1.889,-1.614 4.436,-3.578 6.616,-5.212c0.662,0.716 1.303,1.377 1.843,1.884c3.77,3.541 8.084,5.967 12.851,6.947c12.787,2.628 23.884,-0.35 34.396,-5.556c4.566,-2.26 9.008,-4.959 13.511,-7.443c3.93,-2.168 7.827,-4.38 12.251,-4.855c1.188,0.723 6.181,3.771 9.048,5.587c6.662,4.219 13.804,7.281 21.379,7.483c16.501,0.442 26.318,-1.929 34.726,-4.181c8.404,-2.252 14.699,-4.292 30.754,0.498c0.241,0.072 4.144,0.883 6.278,0.992c2.564,0.132 4.565,-0.279 5.643,-0.57c5.328,-1.44 10.279,-3.642 15.151,-5.966c4.384,-2.091 8.596,-4.529 13.562,-5.182c9.12,-1.198 15.552,-9.575 14.354,-18.695c-1.198,-9.121 -9.576,-15.552 -18.696,-14.354c-6.126,0.805 -11.749,2.743 -17.199,5.163c-4.203,1.867 -8.237,4.171 -12.605,5.798Z" style="fill:#5c5347;"/><path d="M1414.34,838.019c1.108,0.579 4.489,2.399 6.35,3.923c5.772,4.726 10.794,10.932 13.492,14.564c24.745,33.309 56.511,70.136 73.115,108.226c13.726,31.487 16.912,68.699 19.02,102.71c0.697,11.258 3.769,23.918 -1.404,34.421c-9.082,18.439 -24.255,30.451 -36.878,44.009c-16.366,17.58 -29.384,37.02 -29.6,67.559c-0.206,29.132 15.651,52.466 31.368,75.98c11.583,17.329 23.363,34.759 19.775,58.032c-0.776,5.03 -5.617,7.899 -10.727,10.235c-11.208,5.124 -26.192,6.436 -35.065,1.988c-9.686,-4.856 -12.18,-11.237 -13.091,-19.084c-0.621,-5.349 -0.735,-11.142 -1.072,-17.382c-0.496,-9.185 -8.355,-16.24 -17.54,-15.744c-9.186,0.495 -16.241,8.355 -15.745,17.54c1.544,28.604 2.241,49.293 32.508,64.468c16.139,8.091 43.479,7.849 63.864,-1.47c15.971,-7.302 27.388,-19.753 29.812,-35.471c4.997,-32.41 -8.876,-57.503 -25.007,-81.636c-11.997,-17.949 -25.904,-34.983 -25.747,-57.221c0.179,-25.405 14.517,-39.043 28.749,-53.436c12.661,-12.806 25.584,-25.945 34.299,-43.639c7.723,-15.681 5.812,-34.402 4.77,-51.21c-2.341,-37.777 -6.487,-78.995 -21.733,-113.969c-17.565,-40.295 -50.736,-79.547 -76.914,-114.784c-5.616,-7.561 -18.431,-22.184 -31.087,-28.287c-8.917,-4.3 -17.96,-5.047 -26.102,-1.888c-8.576,3.328 -12.836,12.992 -9.509,21.567c3.139,8.09 11.916,12.339 20.099,9.999Z" style="fill:#5c5347;"/><path d="M1584.04,1354.58c-0.144,0.532 -0.807,2.929 -1.338,4.244c-1.629,4.033 -3.701,7.922 -4.942,10.716c-13.568,30.54 -52.338,50.026 -85.38,41.269c-18.372,-4.87 -28.947,-17.542 -35.147,-32.863c-7.335,-18.128 -8.993,-39.714 -8.958,-59.162c0.016,-9.198 -7.439,-16.68 -16.638,-16.696c-9.198,-0.016 -16.679,7.439 -16.696,16.637c-0.088,50.138 12.852,109.45 68.899,124.305c48.111,12.751 104.626,-15.488 124.382,-59.957c2.081,-4.684 5.941,-12.016 7.763,-18.701c1.336,-4.899 1.724,-9.638 1.143,-13.74c-1.289,-9.107 -9.73,-15.455 -18.838,-14.166c-8.866,1.255 -15.117,9.288 -14.25,18.114Z" style="fill:#5c5347;"/><path d="M1723.3,1316.06c-6.182,11.788 -15.334,22.039 -22.76,32.986c-8.858,13.06 -7.975,13.005 -16.864,26.501c-4.765,7.234 -8.981,14.812 -15.363,19.941c2.453,-39.325 -22.137,-63.055 -56.015,-76.836c-8.52,-3.466 -18.252,0.637 -21.718,9.158c-3.467,8.52 0.637,18.252 9.157,21.718c20.094,8.174 36.798,20.632 35.303,43.979c-0.197,3.078 -1.131,8.158 -2.908,12.727c-0.194,0.499 -0.482,1.097 -0.795,1.688c-2.337,1.418 -4.516,2.955 -5.912,4.206c-2.784,2.494 -4.213,4.983 -4.849,6.359c-4.451,9.624 -0.393,16.209 4.811,20.316c2.014,1.59 6.791,5.329 15.448,2.94c4.223,-1.166 8.178,-3.432 11.657,-6.673c5.399,-0.942 10.86,-1.123 16.207,-2.741c20.116,-6.087 31.726,-21.611 42.815,-38.447c8.761,-13.301 7.881,-13.252 16.612,-26.124c8.022,-11.825 17.647,-23.064 24.443,-35.741c0.78,0.108 1.586,0.197 2.423,0.269c13.644,1.175 27.99,-1.195 41.114,-4.487c8.923,-2.238 14.349,-11.298 12.112,-20.221c-2.238,-8.922 -11.299,-14.349 -20.221,-12.111c-9.635,2.417 -20.13,4.471 -30.146,3.608c-1.921,-0.165 -3.28,-0.759 -4.79,-1.563c-1.818,-1.675 -3.868,-3.429 -4.9,-3.858c-4.532,-1.884 -8.899,-1.736 -13.07,0.011c-2.561,1.073 -5.388,2.875 -7.725,6.464c-1.403,2.155 -2.653,5.132 -3.276,8.778c-0.308,1.802 -0.662,5.657 -0.79,7.153Z" style="fill:#5c5347;"/><path d="M1048.15,536.824c-12.413,-34.673 -42.271,-46.05 -77.464,-43.673c-43.67,2.949 -95.819,28.422 -117.806,41.884c-35.602,21.798 -74.831,56.427 -92.724,95.171c-8.472,18.342 -10.711,41.089 -14.66,62.906c-2.994,16.547 -6.699,32.713 -19.33,43.571c-26.885,23.112 -54.494,27.83 -80.746,33.657c-23.727,5.265 -46.539,11.294 -67.842,26.851c-21.251,15.518 -41.311,40.568 -58.439,85.168c-16.512,42.993 -30.74,100.919 -21.278,147.113c2.649,12.936 7.721,24.215 12.353,35.301c4.946,11.836 9.668,23.345 5.33,38.436c-4.335,15.082 -14.841,25.078 -25.653,34.862c-14.366,13 -29.488,25.523 -39.369,42.63c-18.625,32.243 -21.652,89.823 -10.547,144.45c11.233,55.253 36.983,106.687 70.728,127.038c47.72,28.78 89.59,10.726 126.795,-8.595c12.112,-6.291 23.591,-12.6 34.601,-16.172c11.533,-3.742 22.361,-3.799 32.462,6.811c6.343,6.663 16.901,6.922 23.563,0.58c6.662,-6.343 6.922,-16.901 0.58,-23.563c-26.616,-27.958 -55.263,-22.548 -87.121,-7.166c-14.506,7.004 -29.822,16.101 -46.128,22.56c-20.543,8.137 -42.94,11.836 -67.538,-2.999c-27.566,-16.626 -46.1,-59.997 -55.277,-105.135c-9.302,-45.759 -8.855,-94.127 6.746,-121.136c8.125,-14.067 21.058,-23.897 32.871,-34.587c15.368,-13.907 29.161,-28.933 35.323,-50.369c5.797,-20.167 2.586,-36.466 -3.343,-52.315c-4.457,-11.914 -10.88,-23.447 -13.721,-37.32c-8.273,-40.394 5.302,-90.879 19.74,-128.474c14.007,-36.473 29.601,-57.508 46.979,-70.198c17.325,-12.651 36.112,-16.948 55.407,-21.23c31.111,-6.904 63.392,-13.531 95.253,-40.921c18.516,-15.917 26.013,-38.657 30.402,-62.912c3.435,-18.98 4.751,-38.91 12.12,-54.866c15.292,-33.111 49.443,-62.09 79.868,-80.719c19.191,-11.75 64.53,-34.481 102.646,-37.055c19.349,-1.306 37.012,2.588 43.837,21.651c3.1,8.66 12.648,13.174 21.309,10.074c8.66,-3.101 13.174,-12.649 10.073,-21.309Z" style="fill:#5c5347;"/><path d="M788.535,1464.43c-13.388,-30.856 -34.142,-48.765 -68.119,-60.206c-8.718,-2.935 -18.179,1.759 -21.114,10.477c-2.936,8.717 1.759,18.178 10.477,21.114c27.314,9.197 42.652,24.245 51.986,51.791c0.762,2.25 4.208,11.104 15.822,11.403c3.093,0.08 17.823,-1.832 19.236,-2.089c19.922,-3.614 44.712,-23.371 51.861,-42.04c5.035,-13.149 3.879,-30.86 -1.647,-48.908c-7.072,-23.097 -20.73,-46.916 -30.273,-59.542c-25.981,-34.377 -22.703,-56.559 -17.776,-79.977c4.222,-20.065 9.075,-40.86 4.694,-67.456c-6.185,-37.55 -25.204,-77.562 -47.277,-108.326c-6.496,-9.053 -15.399,-15.068 -21.132,-24.848c-18.884,-32.209 -14.296,-85.355 -2.016,-119.059c4.316,-11.848 10.344,-25.653 18.753,-37.198c6.897,-9.468 15.31,-17.612 26.388,-20.055c8.983,-1.981 14.667,-10.882 12.686,-19.865c-1.981,-8.983 -10.882,-14.667 -19.865,-12.686c-15.448,3.407 -28.513,12.337 -39.204,24.337c-13.878,15.577 -23.671,36.47 -30.078,54.056c-15.2,41.721 -18.795,107.459 4.58,147.329c6.269,10.693 15.702,17.523 22.805,27.422c19.241,26.816 36.079,61.579 41.47,94.31c4.634,28.133 -3.884,48.514 -7.153,69.701c-4.06,26.319 -2.717,53.712 26.532,92.413c7.884,10.432 19.15,30.12 24.993,49.203c3.087,10.081 5.203,19.884 2.391,27.229c-3.647,9.524 -16.52,19.319 -26.683,21.162l-2.337,0.308Z" style="fill:#5c5347;"/></g><g id="Layer9"></g></svg>